<?xml version="1.0" encoding="UTF-8"?>
<svg version="1.1" xmlns="http://www.w3.org/2000/svg" width="693" height="802">
<path d="M0 0 C1.83911133 0.80932617 1.83911133 0.80932617 3.58203125 1.79296875 C4.58919189 2.35588623 4.58919189 2.35588623 5.61669922 2.93017578 C6.34131348 3.34509277 7.06592773 3.76000977 7.8125 4.1875 C8.59383301 4.62819824 9.37516602 5.06889648 10.18017578 5.52294922 C17.63111697 9.74471324 25.02075732 14.07355182 32.40942383 18.40307617 C40.24230937 22.98981252 48.1130427 27.50724628 56 32 C65.72143706 37.53951839 75.40895317 43.13375194 85.06689453 48.78344727 C95.59084625 54.93766742 106.15380137 61.02369996 116.71777344 67.10888672 C122.14659942 70.23680148 127.57319281 73.36858448 133 76.5 C135.16665583 77.75001879 137.3333225 79.00001878 139.5 80.25 C178.5 102.75 217.5 125.25 256.5 147.75 C257.57266113 148.36883057 258.64532227 148.98766113 259.75048828 149.62524414 C261.91557071 150.87435518 264.08060982 152.12354129 266.24560547 153.37280273 C271.68615706 156.51202309 277.12747216 159.64990563 282.5703125 162.78515625 C294.19660383 169.4843204 305.81182529 176.20082866 317.38330078 182.99438477 C325.53521986 187.76736487 333.76179848 192.36601164 342 197 C342 271.91 342 346.82 342 424 C336.06 427.3 330.12 430.6 324 434 C320.15668654 436.21483257 316.32215286 438.43728936 312.5 440.6875 C310.44562799 441.89116363 308.39092877 443.09426893 306.3359375 444.296875 C305.2953418 444.90595703 304.25474609 445.51503906 303.18261719 446.14257812 C297.84108881 449.25997211 292.48348988 452.34937916 287.125 455.4375 C286.04686035 456.05898926 284.9687207 456.68047852 283.85791016 457.32080078 C279.47536799 459.8464552 275.09216077 462.37095429 270.70898438 464.89550781 C259.12318234 471.56956312 247.54446647 478.25464084 236 485 C222.26944812 493.02267511 208.48922034 500.95858259 194.70898438 508.89550781 C183.12318234 515.56956312 171.54446647 522.25464084 160 529 C148.45270484 535.74701194 136.87097973 542.43339318 125.28222656 549.10888672 C119.85340062 552.23680146 114.42677993 555.36853731 109 558.5 C102.47766725 562.26363919 95.95486238 566.02644622 89.4296875 569.78515625 C77.94835047 576.4005933 66.48274899 583.04145782 55.04296875 589.72851562 C49.86761838 592.75143709 44.68569889 595.7622771 39.4921875 598.75390625 C38.4000293 599.38304932 37.30787109 600.01219238 36.18261719 600.66040039 C33.99462515 601.91864116 31.805192 603.17437956 29.61425781 604.42749023 C24.24845925 607.50564893 18.93183088 610.63737623 13.6796875 613.90625 C12.17946045 614.82942017 12.17946045 614.82942017 10.64892578 615.77124023 C8.76416482 616.93584283 6.88941349 618.11685844 5.02685547 619.31665039 C-1.10340701 623.08345945 -1.10340701 623.08345945 -4.9375 622.7265625 C-5.948125 622.15679688 -6.95875 621.58703125 -8 621 C-8.75506836 620.58516357 -9.51013672 620.17032715 -10.28808594 619.74291992 C-13.13937262 618.14785919 -15.94430642 616.48641072 -18.75 614.8125 C-20.91367549 613.53580222 -23.07775166 612.25978329 -25.2421875 610.984375 C-26.35819336 610.32501953 -27.47419922 609.66566406 -28.62402344 608.98632812 C-34.0212633 605.81074644 -39.44764 602.6862344 -44.875 599.5625 C-47.05991376 598.30341652 -49.24480949 597.04430177 -51.4296875 595.78515625 C-52.51475586 595.16012207 -53.59982422 594.53508789 -54.71777344 593.89111328 C-60.14659942 590.76319852 -65.57319281 587.63141552 -71 584.5 C-73.16665583 583.24998121 -75.3333225 581.99998122 -77.5 580.75 C-99.16666667 568.25 -120.83333333 555.75 -142.5 543.25 C-143.57386963 542.6305249 -144.64773926 542.0110498 -145.75415039 541.37280273 C-147.90721037 540.13052194 -150.06004478 538.88785012 -152.21264648 537.64477539 C-157.24101461 534.74163888 -162.27139814 531.84221133 -167.31021118 528.95724487 C-169.08432545 527.94122816 -170.85769919 526.92393072 -172.63085938 525.90625 C-174.84815314 524.63417708 -177.06681075 523.36447715 -179.28710938 522.09765625 C-180.29708984 521.51757812 -181.30707031 520.9375 -182.34765625 520.33984375 C-183.66262085 519.58755493 -183.66262085 519.58755493 -185.00415039 518.82006836 C-185.99278076 518.2194458 -186.98141113 517.61882324 -188 517 C-189.10156968 516.63042254 -189.10156968 516.63042254 -190.2253933 516.25337887 C-193.35825668 514.88794838 -194.90433237 513.73423622 -197 511 C-198.83831568 504.23582957 -198.13317513 496.78490805 -198.02172852 489.84814453 C-198.0191895 487.65024419 -198.02061554 485.45233621 -198.02571106 483.25444031 C-198.02829463 477.28944135 -197.97536314 471.32606938 -197.91254544 465.36144876 C-197.85630383 459.12751408 -197.85099848 452.89354255 -197.84031677 446.65939331 C-197.81551704 436.19647582 -197.75929284 425.73411551 -197.67895508 415.27148438 C-197.5963047 404.49644957 -197.53261859 393.72157698 -197.49438477 382.94628906 C-197.49202025 382.28176539 -197.48965574 381.61724172 -197.48721958 380.93258096 C-197.47547398 377.59875787 -197.46412097 374.26493367 -197.45291245 370.93110871 C-197.3588255 343.28699008 -197.20051083 315.64353704 -197 288 C-60.5 209.25 -60.5 209.25 -57.24609375 207.37280273 C-55.0923828 206.13023981 -52.93873633 204.88756511 -50.78515625 203.64477539 C-45.76315738 200.74685377 -40.74057193 197.84996651 -35.71557617 194.95724487 C-33.94954478 193.94052802 -32.18372569 192.92344342 -30.41796875 191.90625 C-28.21265845 190.63599127 -26.00695784 189.36640982 -23.80078125 188.09765625 C-22.79402344 187.51757812 -21.78726562 186.9375 -20.75 186.33984375 C-19.78449219 185.7866748 -18.81898438 185.23350586 -17.82421875 184.66357422 C-15.92882149 183.54711183 -14.05598563 182.39150682 -12.20703125 181.19970703 C-11.33433594 180.64009277 -10.46164062 180.08047852 -9.5625 179.50390625 C-8.80066406 178.99802979 -8.03882813 178.49215332 -7.25390625 177.97094727 C-4.34200468 176.71654599 -2.99076684 177.03424064 0 178 C2.2980957 179.0847168 2.2980957 179.0847168 4.67578125 180.44921875 C5.57321045 180.96009033 6.47063965 181.47096191 7.39526367 181.99731445 C8.35795166 182.55507568 9.32063965 183.11283691 10.3125 183.6875 C11.32868408 184.26910889 12.34486816 184.85071777 13.3918457 185.44995117 C21.50991587 190.10728784 29.59137458 194.82838396 37.66772461 199.55761719 C45.37525674 204.06735002 53.1174686 208.51453453 60.875 212.9375 C75.34964616 221.19140503 89.78222016 229.51717471 104.20898438 237.85449219 C107.43068275 239.71602672 110.65271079 241.57698839 113.875 243.4375 C114.94105469 244.05302734 116.00710938 244.66855469 117.10546875 245.30273438 C125.68995597 250.25453042 134.29580293 255.16824868 142.90472412 260.07736206 C151.93673971 265.22961544 160.93030103 270.44466451 169.90258789 275.70019531 C177.75754718 280.29395257 185.65509792 284.80994463 193.5625 289.3125 C203.11731855 294.75321419 212.62242744 300.25862905 222 306 C219.58310212 308.69407427 216.99835145 310.2670893 213.8359375 312.00390625 C212.8054126 312.57423584 211.7748877 313.14456543 210.71313477 313.73217773 C209.61155029 314.33618408 208.50996582 314.94019043 207.375 315.5625 C205.07865933 316.83455252 202.78308685 318.10799278 200.48828125 319.3828125 C199.3688916 320.00446289 198.24950195 320.62611328 197.09619141 321.26660156 C193.21917228 323.43714531 189.38204748 325.6677246 185.5625 327.9375 C178.59251545 332.07353479 171.58498433 336.14121387 164.5625 340.1875 C163.45527588 340.82550537 162.34805176 341.46351074 161.20727539 342.12084961 C158.93662932 343.42889477 156.66587642 344.73675448 154.39501953 346.04443359 C148.9283002 349.19332054 143.46425113 352.34683264 138 355.5 C135.83334689 356.7500235 133.66668021 358.00002347 131.5 359.25 C130.4275 359.86875 129.355 360.4875 128.25 361.125 C92.5 381.75 92.5 381.75 89.24951172 383.62524414 C87.08442929 384.87435518 84.91939018 386.12354129 82.75439453 387.37280273 C77.31384294 390.51202309 71.87252784 393.64990563 66.4296875 396.78515625 C56.84249432 402.30929054 47.25904314 407.83894401 37.70678711 413.42333984 C34.74164381 415.15586394 31.77329228 416.88279064 28.8046875 418.609375 C24.85709298 420.90736763 20.92832915 423.23426827 17.0078125 425.578125 C15.10954155 426.69819898 13.21111089 427.81800234 11.3125 428.9375 C10.44520264 429.46432373 9.57790527 429.99114746 8.68432617 430.53393555 C7.87713135 431.00613525 7.06993652 431.47833496 6.23828125 431.96484375 C5.53743408 432.3837085 4.83658691 432.80257324 4.11450195 433.23413086 C0.79926316 434.43490491 -1.69309226 433.57512268 -4.83911133 432.19067383 C-5.4142749 431.86607178 -5.98943848 431.54146973 -6.58203125 431.20703125 C-7.25363281 430.83167236 -7.92523438 430.45631348 -8.6171875 430.06958008 C-9.34164063 429.65474365 -10.06609375 429.23990723 -10.8125 428.8125 C-11.59238281 428.37252686 -12.37226563 427.93255371 -13.17578125 427.47924805 C-21.69339544 422.65232274 -30.13761445 417.69679931 -38.5859375 412.75 C-44.84837427 409.08475276 -51.12183184 405.4389192 -57.40405273 401.80770874 C-59.08588644 400.83511903 -60.7665899 399.8605757 -62.44726562 398.88598633 C-63.47787109 398.29068115 -64.50847656 397.69537598 -65.5703125 397.08203125 C-66.47539551 396.55843018 -67.38047852 396.0348291 -68.31298828 395.49536133 C-71.16776809 393.9066346 -74.06809966 392.44066125 -77 391 C-77 390.34 -77 389.68 -77 389 C-76.27748047 388.58862793 -75.55496094 388.17725586 -74.81054688 387.75341797 C-62.17548317 380.55590142 -49.54821437 373.34826509 -37 366 C-27.77201265 360.5964046 -18.50005309 355.27347627 -9.20898438 349.97949219 C-1.11255751 345.3649713 6.9580009 340.70893932 15 336 C23.94994008 330.76073397 32.93265136 325.5816014 41.9375 320.4375 C42.52877686 320.09952393 43.12005371 319.76154785 43.72924805 319.41333008 C50.46258997 315.56584067 57.20871144 311.74438019 64 308 C55.33412691 302.59440452 46.57650016 297.40769155 37.6875 292.375 C35.24382462 290.98737365 32.80132147 289.59769764 30.359375 288.20703125 C29.44308571 287.68534615 29.44308571 287.68534615 28.50828552 287.15312195 C24.307712 284.7571935 20.12489526 282.33242429 15.953125 279.88671875 C14.85395752 279.24234863 13.75479004 278.59797852 12.62231445 277.93408203 C10.53869073 276.70962366 8.45643835 275.48282798 6.37573242 274.25341797 C5.44607666 273.7070166 4.5164209 273.16061523 3.55859375 272.59765625 C2.74704834 272.11820557 1.93550293 271.63875488 1.09936523 271.14477539 C-1.08464027 269.87370671 -1.08464027 269.87370671 -4 269 C-6.47200949 270.04261792 -6.47200949 270.04261792 -9.13671875 271.69140625 C-10.17634766 272.29919922 -11.21597656 272.90699219 -12.28710938 273.53320312 C-13.97030273 274.53770508 -13.97030273 274.53770508 -15.6875 275.5625 C-16.86335088 276.25424447 -18.03979189 276.94498671 -19.21679688 277.63476562 C-21.63900044 279.05618515 -24.0578927 280.48299836 -26.47412109 281.91455078 C-31.63367788 284.96997883 -36.81828715 287.98236068 -42 291 C-43.98178585 292.15752638 -45.96355655 293.31507868 -47.9453125 294.47265625 C-59.77390343 301.37234686 -71.64871161 308.19262603 -83.51660156 315.02441406 C-85.87346291 316.38115258 -88.23006924 317.73833221 -90.58642578 319.09594727 C-92.79006869 320.36546119 -94.99413955 321.63423268 -97.19873047 322.90209961 C-98.20564941 323.4822583 -99.21256836 324.06241699 -100.25 324.66015625 C-101.55710938 325.41244507 -101.55710938 325.41244507 -102.890625 326.17993164 C-103.91671875 326.7805542 -104.9428125 327.38117676 -106 328 C-106.80784376 328.34329881 -107.61568752 328.68659761 -108.4480114 329.04029942 C-111.38272334 330.4403145 -113.62002223 331.7738316 -116 334 C-117.48133089 338.24637685 -117.32492475 342.33648739 -117.22705078 346.79833984 C-117.24387154 348.73086105 -117.24387154 348.73086105 -117.2610321 350.7024231 C-117.29055749 354.22367319 -117.25882211 357.74199215 -117.21586847 361.26300383 C-117.18141761 364.94663961 -117.20359243 368.62992998 -117.21969604 372.31362915 C-117.24159574 379.28373769 -117.21275677 386.25267087 -117.165573 393.22261679 C-117.11432029 401.1598045 -117.11980391 409.09663811 -117.12999368 417.03394771 C-117.14968012 433.3563999 -117.09831105 449.67782292 -117 466 C-115.84779716 466.44940948 -115.84779716 466.44940948 -114.6723175 466.90789795 C-111.69766389 468.12355638 -109.01740078 469.60310664 -106.23046875 471.203125 C-104.5451001 472.16810913 -104.5451001 472.16810913 -102.82568359 473.15258789 C-101.61288279 473.85159872 -100.40015681 474.55073939 -99.1875 475.25 C-97.92540022 475.9747148 -96.66319169 476.69924024 -95.40087891 477.42358398 C-86.55723637 482.50374563 -77.74132033 487.63125603 -68.93774414 492.78051758 C-61.68117522 497.02456363 -54.40803357 501.23903895 -47.125 505.4375 C-46.06128174 506.05077148 -44.99756348 506.66404297 -43.90161133 507.29589844 C-38.7774109 510.24915457 -33.65205281 513.20039544 -28.52600098 516.1504364 C-26.11782525 517.53659738 -23.71009301 518.92352749 -21.3024292 520.31057739 C-19.59741766 521.29239298 -17.8917333 522.27303984 -16.18603516 523.25366211 C-15.15655762 523.84671143 -14.12708008 524.43976074 -13.06640625 525.05078125 C-12.15834229 525.57325439 -11.25027832 526.09572754 -10.31469727 526.6340332 C-8.50873799 527.69977966 -6.74478871 528.83680752 -5 530 C-0.8628629 529.67505992 2.15004993 527.98966809 5.69921875 525.9296875 C7.36911865 524.96760376 7.36911865 524.96760376 9.07275391 523.98608398 C10.27773761 523.28250636 11.48265113 522.5788085 12.6875 521.875 C13.94411816 521.14786085 15.20112306 520.42138967 16.45849609 519.69555664 C19.04627864 518.2003235 21.63175689 516.7012215 24.21533203 515.19873047 C28.78137489 512.54399367 33.35902504 509.90951669 37.9362793 507.27416992 C43.29397805 504.18819123 48.64674538 501.09367941 54 498 C67.94844368 489.93910696 81.91003888 481.90290574 95.90472412 473.92263794 C103.96263303 469.32605725 111.99412773 464.68667368 120 460 C128.55549411 454.99254896 137.14024245 450.03845141 145.75 445.125 C146.3332605 444.79211975 146.916521 444.4592395 147.51745605 444.11627197 C152.27436898 441.40199484 157.03290718 438.69057169 161.79150391 435.97924805 C165.94508974 433.61248568 170.09804261 431.24461806 174.25 428.875 C175.12537415 428.37543793 175.12537415 428.37543793 176.01843262 427.86578369 C185.018365 422.72728561 193.97964838 417.52511401 202.92285156 412.28857422 C211.17062624 407.4662316 219.46142246 402.72121155 227.76483154 397.99560547 C234.21198426 394.32624277 240.64521388 390.63664272 247.0390625 386.875 C248.14894531 386.22273438 249.25882813 385.57046875 250.40234375 384.8984375 C252.50880832 383.65753837 254.61307606 382.41290045 256.71484375 381.1640625 C257.64683594 380.61492187 258.57882812 380.06578125 259.5390625 379.5 C260.35584473 379.0153125 261.17262695 378.530625 262.01416016 378.03125 C264 377 264 377 266 377 C266 333.11 266 289.22 266 244 C263.525 243.01 263.525 243.01 261 242 C259.08344321 240.974849 257.1849447 239.91556831 255.30078125 238.83203125 C254.18751465 238.19386475 253.07424805 237.55569824 251.92724609 236.89819336 C250.72228318 236.20304466 249.5173691 235.5078113 248.3125 234.8125 C247.05565201 234.09031382 245.79865088 233.3683941 244.54150391 232.64672852 C241.31362852 230.79256933 238.08810651 228.93436047 234.86346436 227.07458496 C232.00474796 225.42607817 229.14481546 223.77968312 226.28515625 222.1328125 C220.92721891 219.04520824 215.57207499 215.95279067 210.21777344 212.85888672 C204.81329355 209.73675395 199.40652588 206.61858796 194 203.5 C191.8333225 202.25001878 189.66665583 201.00001879 187.5 199.75 C185.89125 198.821875 185.89125 198.821875 184.25 197.875 C44.5 117.25 44.5 117.25 41.24438477 115.37158203 C39.0966418 114.13261766 36.94869545 112.89400576 34.80053711 111.65576172 C29.70820563 108.71985895 24.61808305 105.78030245 19.5350647 102.82830811 C17.12565992 101.42931947 14.7150991 100.03232971 12.30444336 98.63549805 C10.59701018 97.64501929 8.89126028 96.6516406 7.18554688 95.65820312 C6.15623047 95.06201172 5.12691406 94.46582031 4.06640625 93.8515625 C3.15834229 93.32385254 2.25027832 92.79614258 1.31469727 92.25244141 C-1.04741501 90.8878949 -1.04741501 90.8878949 -4 90 C-6.4391459 91.02618933 -6.4391459 91.02618933 -9.06640625 92.65625 C-10.09572266 93.25888672 -11.12503906 93.86152344 -12.18554688 94.48242188 C-13.85713867 95.48112305 -13.85713867 95.48112305 -15.5625 96.5 C-16.73308997 97.18922894 -17.90432489 97.87736357 -19.07617188 98.56445312 C-21.51311 99.99445462 -23.94718843 101.42915344 -26.37939453 102.8671875 C-31.8939538 106.12244075 -37.44879714 109.30779361 -43 112.5 C-45.16685938 113.74966591 -47.3335254 114.99966715 -49.5 116.25 C-134 165 -134 165 -218.5 213.75 C-219.57403076 214.36963623 -220.64806152 214.98927246 -221.75463867 215.62768555 C-223.90583224 216.86875254 -226.05703655 218.10980093 -228.20825195 219.35083008 C-233.25962999 222.26498344 -238.3109031 225.17931818 -243.36178589 228.09432983 C-245.15066918 229.12673478 -246.93958717 230.15907956 -248.72851562 231.19140625 C-250.97337636 232.48685948 -253.2181719 233.7824257 -255.46289062 235.078125 C-256.9875293 235.95791016 -256.9875293 235.95791016 -258.54296875 236.85546875 C-259.43008545 237.36746826 -260.31720215 237.87946777 -261.23120117 238.40698242 C-264 240 -264 240 -267.61806583 241.53800583 C-269.7998605 242.80062446 -270.80082679 243.43683331 -271.64967239 245.83696318 C-271.90365931 248.24353752 -271.92617303 250.56513105 -271.87974548 252.98492432 C-271.89484227 254.36212446 -271.89484227 254.36212446 -271.91024405 255.76714683 C-271.93553498 258.85111071 -271.91083621 261.93265951 -271.88647461 265.01660156 C-271.8943604 267.22407281 -271.90531919 269.43153491 -271.91912842 271.63897705 C-271.9479206 277.63880796 -271.93358915 283.63786116 -271.91168666 289.63769245 C-271.89608385 295.90514986 -271.91990152 302.17245236 -271.93959045 308.43988037 C-271.96731144 318.96160717 -271.9706408 329.48314207 -271.95532227 340.00488281 C-271.93961104 350.8421773 -271.93857007 361.67930946 -271.95727539 372.51660156 C-271.95842332 373.18463768 -271.95957125 373.85267379 -271.96075397 374.54095343 C-271.96660338 377.89230331 -271.97274137 381.2436526 -271.97902286 384.5950017 C-272.03011293 412.39671939 -272.03137906 440.19826176 -272 468 C-274.24853257 466.88271725 -276.49629901 465.76393736 -278.74365234 464.64428711 C-279.37702011 464.32976341 -280.01038788 464.01523972 -280.66294861 463.691185 C-285.09783621 461.4796994 -289.39501845 459.13878985 -293.625 456.5625 C-302.38872748 451.31739191 -311.260974 446.26718159 -320.14892578 441.23657227 C-322.38804357 439.96358693 -324.61395844 438.66708043 -326.82563496 437.3469944 C-329.81888755 435.60191223 -332.86009691 434.13787907 -336.02067089 432.720541 C-349.23891551 426.41745756 -349.23891551 426.41745756 -352.15356469 420.76145983 C-353.98016993 414.35273267 -353.60593301 407.76722848 -353.41333008 401.17041016 C-353.4224346 398.97145555 -353.44022287 396.77252246 -353.46598816 394.57369995 C-353.5100079 388.62916955 -353.4298735 382.69226072 -353.32426286 376.74874544 C-353.23239078 370.52169886 -353.24737942 364.2948262 -353.24845886 358.06723022 C-353.23454183 347.61730458 -353.14460996 337.17011604 -353.00317383 326.72119141 C-352.85785709 315.9792118 -352.78012554 305.23955981 -352.77758789 294.49658203 C-352.77742205 293.83404012 -352.77725621 293.17149821 -352.77708534 292.48887928 C-352.77685109 291.49674484 -352.77685109 291.49674484 -352.7766121 290.48456728 C-352.77279076 277.61262879 -352.70037079 264.74177282 -352.60513854 251.87021971 C-352.58203056 248.16395177 -352.57120488 244.45781194 -352.56287575 240.75148392 C-352.54605152 234.93097404 -352.4829161 229.11272157 -352.38383675 223.29304886 C-352.35435528 221.15746593 -352.34005682 219.02161163 -352.34201431 216.88582611 C-352.3416716 200.72906411 -352.3416716 200.72906411 -349.0113287 196.43712234 C-346.68962384 194.85442025 -344.65174288 193.8917799 -342 193 C-341.03118896 192.42443359 -340.06237793 191.84886719 -339.06420898 191.25585938 C-337.79299194 190.55686523 -337.79299194 190.55686523 -336.49609375 189.84375 C-335.52115967 189.30379395 -334.54622559 188.76383789 -333.54174805 188.20751953 C-332.51734619 187.64403809 -331.49294434 187.08055664 -330.4375 186.5 C-321.965813 181.79885433 -313.54374102 177.02848622 -305.1875 172.125 C-296.4915545 167.0240304 -287.75993887 161.9899162 -279 157 C-270.30581933 152.04650609 -261.63496896 147.05630535 -253 142 C-243.77199471 136.5964354 -234.5000533 131.27347639 -225.20898438 125.97949219 C-217.11255782 121.36497148 -209.04198543 116.70896206 -201 112 C-192.4048271 106.9681021 -183.77687778 101.99610876 -175.125 97.0625 C-162.79974804 90.03396493 -150.50277933 82.95759566 -138.21777344 75.85888672 C-132.81329355 72.73675395 -127.40652588 69.61858796 -122 66.5 C-119.8333225 65.25001878 -117.66665583 64.00001879 -115.5 62.75 C-93.83333333 50.25 -72.16666667 37.75 -50.5 25.25 C-49.42580811 24.62996094 -48.35161621 24.00992187 -47.24487305 23.37109375 C-45.09639154 22.13221313 -42.94682816 20.89520666 -40.79614258 19.66015625 C-35.70514784 16.73355935 -30.62752266 13.78873722 -25.5866394 10.7767334 C-23.20019442 9.35234513 -20.80753319 7.93859147 -18.41430664 6.52563477 C-16.72380162 5.52156131 -15.04243962 4.50214482 -13.36132812 3.48242188 C-12.33845703 2.87978516 -11.31558594 2.27714844 -10.26171875 1.65625 C-9.36412842 1.11806641 -8.46653809 0.57988281 -7.54174805 0.02539062 C-4.48189611 -1.20901319 -3.10399514 -1.00840291 0 0 Z " fill="#DA2128" transform="translate(351,1)"/>
<path d="M0 0 C17.74938788 9.6814843 35.43975521 19.42839919 52.87670898 29.66259766 C60.47185293 34.11846524 68.10124113 38.51201369 75.75 42.875 C76.33383453 43.20812195 76.91766907 43.5412439 77.51919556 43.88446045 C80.48796371 45.57816928 83.4571963 47.2710615 86.42675781 48.96337891 C92.32801689 52.32652051 98.2269235 55.69378067 104.125 59.0625 C104.70536011 59.39393005 105.28572021 59.72536011 105.88366699 60.0668335 C115.34199473 65.4692909 124.78028384 70.90595541 134.21142578 76.35571289 C142.12762875 80.92726918 150.06023314 85.46955939 158 90 C168.08733474 95.75584544 178.15514953 101.54464237 188.2109375 107.35546875 C196.12733791 111.92704623 204.0600753 116.46946933 212 121 C222.08733474 126.75584544 232.15514953 132.54464237 242.2109375 138.35546875 C250.12733791 142.92704623 258.0600753 147.46946933 266 152 C276.07707633 157.74999198 286.1348837 163.53250457 296.18017578 169.33789062 C305.53962229 174.74322427 314.92215925 180.10755723 324.3125 185.45898438 C325.40304687 186.08095703 326.49359375 186.70292969 327.6171875 187.34375 C328.67518555 187.94316406 329.73318359 188.54257812 330.82324219 189.16015625 C333.00614209 190.42439954 335.1675634 191.7262389 337.30957031 193.05859375 C338.8927002 194.03505859 338.8927002 194.03505859 340.5078125 195.03125 C341.44512207 195.62486328 342.38243164 196.21847656 343.34814453 196.83007812 C346.52690177 198.23245381 347.75161843 198.12243848 351 197 C353.37868183 195.86897154 353.37868183 195.86897154 355.75390625 194.40234375 C356.67606934 193.85650635 357.59823242 193.31066895 358.54833984 192.74829102 C359.5430127 192.15072998 360.53768555 191.55316895 361.5625 190.9375 C363.73233205 189.6523941 365.90293628 188.3685913 368.07421875 187.0859375 C369.20907715 186.41401367 370.34393555 185.74208984 371.51318359 185.04980469 C377.26438349 181.65816952 383.07234964 178.36498275 388.875 175.0625 C391.2477727 173.71029575 393.62008013 172.35727726 395.9921875 171.00390625 C396.57783981 170.66981247 397.16349213 170.33571869 397.76689148 169.99150085 C403.85662207 166.51514022 409.92892395 163.00880096 416 159.5 C424.94549875 154.33161038 433.90363452 149.18583654 442.875 144.0625 C443.45471558 143.73139221 444.03443115 143.40028442 444.63171387 143.05914307 C450.54016638 139.68478936 456.45013089 136.31309538 462.36167908 132.94416809 C465.32490498 131.25523789 468.28758312 129.56534878 471.25 127.875 C471.83276703 127.54253265 472.41553406 127.21006531 473.01596069 126.86752319 C481.1020964 122.25230787 489.15558097 117.58393664 497.1875 112.875 C506.44051231 107.45036854 515.77397935 102.18325088 525.14404297 96.96386719 C531.57361365 93.37653576 537.94938593 89.71654677 544.27929688 85.95678711 C550.95612268 82.00094219 557.69558809 78.15590204 564.4375 74.3125 C573.63924567 69.06605457 582.82925382 63.8005552 592 58.5 C600.94548565 53.3315878 609.90363462 48.18583648 618.875 43.0625 C619.45471558 42.73139221 620.03443115 42.40028442 620.63171387 42.05914307 C626.54007927 38.68483911 632.44995188 35.31318643 638.36141968 31.94432068 C641.32472932 30.25533489 644.2874365 28.56529413 647.25 26.875 C648.11567596 26.38128403 648.11567596 26.38128403 648.99884033 25.87759399 C658.43632943 20.49300517 667.83191594 15.03920782 677.18847656 9.51513672 C678.10081055 8.97904785 679.01314453 8.44295898 679.953125 7.890625 C680.73848633 7.42688477 681.52384766 6.96314453 682.33300781 6.48535156 C684.58849834 5.22918126 686.85615914 4.05670878 689.16668701 2.90716553 C689.88512157 2.5493185 690.60355614 2.19147148 691.34376144 1.82278061 C692.16359953 1.41550421 692.16359953 1.41550421 693 1 C693.39483244 12.56058013 693.69639429 24.11954522 693.88080692 35.68550682 C693.96934909 41.05725408 694.08926972 46.42437414 694.2824707 51.79345703 C694.46796056 56.98104338 694.56896846 62.16419965 694.61291313 67.35484695 C694.64419813 69.3289636 694.70531026 71.30285119 694.79741096 73.27506638 C695.35977271 85.82274036 695.35977271 85.82274036 693 91 C688.93067204 95.42609786 683.55277984 97.81165404 678.08624649 100.09434319 C675.08129179 101.39881882 672.36797899 103.03546286 669.56640625 104.73046875 C667.56553379 105.88355831 665.56422606 107.03589289 663.5625 108.1875 C661.31379049 109.4830528 659.06509292 110.77862632 656.81640625 112.07421875 C655.68734863 112.72438965 654.55829102 113.37456055 653.39501953 114.04443359 C647.9283002 117.19332054 642.46425113 120.34683264 637 123.5 C634.83334689 124.7500235 632.66668021 126.00002347 630.5 127.25 C629.4275 127.86875 628.355 128.4875 627.25 129.125 C596.375 146.9375 596.375 146.9375 565.5 164.75 C564.42766113 165.36866943 563.35532227 165.98733887 562.25048828 166.62475586 C560.08223736 167.8756448 557.91394303 169.12645852 555.74560547 170.37719727 C550.35282085 173.48798335 544.96077907 176.60004238 539.5703125 179.71484375 C527.80793427 186.50961564 516.02984493 193.27593156 504.23205566 200.00897217 C492.53932383 206.68285605 480.87488668 213.40522282 469.21777344 220.14111328 C463.81329355 223.26324605 458.40652588 226.38141204 453 229.5 C450.8333225 230.74998122 448.66665583 231.99998121 446.5 233.25 C427 244.5 427 244.5 407.5 255.75 C406.4265332 256.36931396 405.35306641 256.98862793 404.24707031 257.62670898 C402.09019097 258.87104998 399.93329008 260.11535364 397.77636719 261.35961914 C393.36951054 263.90185705 388.96273298 266.44423058 384.55664062 268.98779297 C383.98263519 269.31912735 383.40862976 269.65046173 382.81723022 269.99183655 C381.09019161 270.98912581 379.36369732 271.98735749 377.63720703 272.9855957 C375.40748953 274.27048769 373.17416697 275.54914715 370.93701172 276.82104492 C365.81298961 279.74113155 360.79340609 282.67272105 356.01513672 286.13623047 C353.36120172 287.78782681 350.98488289 289.02586557 348 290 C345.16796875 289.17626953 345.16796875 289.17626953 342.3125 287.5703125 C341.26723145 286.99547119 340.22196289 286.42062988 339.14501953 285.82836914 C338.10716309 285.22500732 337.06930664 284.62164551 336 284 C335.07687012 283.47978271 334.15374023 282.95956543 333.20263672 282.42358398 C330.40917976 280.83160036 327.64068268 279.20221882 324.875 277.5625 C322.76597714 276.32231764 320.65658939 275.08275562 318.546875 273.84375 C316.92942383 272.89242187 316.92942383 272.89242187 315.27929688 271.921875 C309.91005267 268.77515892 304.51791809 265.66841381 299.125 262.5625 C297.50634033 261.62966187 297.50634033 261.62966187 295.85498047 260.67797852 C293.66417049 259.41550269 291.4732524 258.15321444 289.28222656 256.89111328 C283.85340058 253.76319852 278.42680719 250.63141552 273 247.5 C270.83334417 246.24998121 268.6666775 244.99998122 266.5 243.75 C236.16666667 226.25 205.83333333 208.75 175.5 191.25 C174.42733887 190.63116943 173.35467773 190.01233887 172.24951172 189.37475586 C170.08442929 188.12564482 167.91939018 186.87645871 165.75439453 185.62719727 C160.31384294 182.48797691 154.87252784 179.35009437 149.4296875 176.21484375 C137.9455118 169.59777108 126.47803106 162.95366023 115.03417969 156.26708984 C104.47379718 150.10080946 93.87873234 143.9950405 83.28222656 137.89111328 C77.85340058 134.76319852 72.42680719 131.63141552 67 128.5 C64.83334417 127.24998121 62.6666775 125.99998122 60.5 124.75 C47.5 117.25 47.5 117.25 44.24414062 115.37158203 C42.09704864 114.13289998 39.94991386 112.8942921 37.80273438 111.65576172 C32.70411191 108.7146665 27.60594704 105.77278587 22.50927734 102.82830811 C20.08952335 101.43041399 17.66952737 100.03293911 15.24951172 98.63549805 C13.53198948 97.64347676 11.81481948 96.65084571 10.09765625 95.65820312 C9.06511719 95.06201172 8.03257813 94.46582031 6.96875 93.8515625 C6.05544922 93.32385254 5.14214844 92.79614258 4.20117188 92.25244141 C2.82011309 91.46663489 1.42121505 90.71060752 0 90 C0 60.3 0 30.6 0 0 Z " fill="#FBAE16" transform="translate(0,512)"/>
<path d="M0 0 C0.39483244 11.56058013 0.69639429 23.11954522 0.88080692 34.68550682 C0.96934909 40.05725408 1.08926972 45.42437414 1.2824707 50.79345703 C1.46796056 55.98104338 1.56896846 61.16419965 1.61291313 66.35484695 C1.64419813 68.3289636 1.70531026 70.30285119 1.79741096 72.27506638 C2.35977271 84.82274036 2.35977271 84.82274036 0 90 C-4.06932796 94.42609786 -9.44722016 96.81165404 -14.91375351 99.09434319 C-17.91870821 100.39881882 -20.63202101 102.03546286 -23.43359375 103.73046875 C-25.43446621 104.88355831 -27.43577394 106.03589289 -29.4375 107.1875 C-31.68620951 108.4830528 -33.93490708 109.77862632 -36.18359375 111.07421875 C-37.31265137 111.72438965 -38.44170898 112.37456055 -39.60498047 113.04443359 C-45.0716998 116.19332054 -50.53574887 119.34683264 -56 122.5 C-58.16665311 123.7500235 -60.33331979 125.00002347 -62.5 126.25 C-63.5725 126.86875 -64.645 127.4875 -65.75 128.125 C-86.33333333 140 -106.91666667 151.875 -127.5 163.75 C-128.57233887 164.36866943 -129.64467773 164.98733887 -130.74951172 165.62475586 C-132.91776264 166.8756448 -135.08605697 168.12645852 -137.25439453 169.37719727 C-142.64717915 172.48798335 -148.03922093 175.60004238 -153.4296875 178.71484375 C-165.19206573 185.50961564 -176.97015507 192.27593156 -188.76794434 199.00897217 C-200.46067617 205.68285605 -212.12511332 212.40522282 -223.78222656 219.14111328 C-229.18670645 222.26324605 -234.59347412 225.38141204 -240 228.5 C-242.1666775 229.74998122 -244.33334417 230.99998121 -246.5 232.25 C-266 243.5 -266 243.5 -285.5 254.75 C-286.5734668 255.36931396 -287.64693359 255.98862793 -288.75292969 256.62670898 C-290.90980903 257.87104998 -293.06670992 259.11535364 -295.22363281 260.35961914 C-300.7902267 263.57088902 -306.35640288 266.78288013 -311.921875 269.99609375 C-317.34960383 273.12959221 -322.77848732 276.26107913 -328.20849609 279.390625 C-329.96442369 280.40296318 -331.72000799 281.4158973 -333.47509766 282.4296875 C-335.50308696 283.60096113 -337.53249124 284.76973124 -339.5625 285.9375 C-340.61566406 286.54464844 -341.66882813 287.15179687 -342.75390625 287.77734375 C-345 289 -345 289 -346 289 C-346 258.97 -346 228.94 -346 198 C-317.13867187 181.5078125 -317.13867187 181.5078125 -306.90625 175.66796875 C-296.92366319 169.96914664 -286.95305412 164.25028408 -277 158.5 C-268.05440941 153.33176857 -259.09636619 148.18583694 -250.125 143.0625 C-249.54528442 142.73139221 -248.96556885 142.40028442 -248.36828613 142.05914307 C-242.45983362 138.68478936 -236.54986911 135.31309538 -230.63832092 131.94416809 C-227.67509502 130.25523789 -224.71241688 128.56534878 -221.75 126.875 C-221.16723297 126.54253265 -220.58446594 126.21006531 -219.98403931 125.86752319 C-211.8979036 121.25230787 -203.84441903 116.58393664 -195.8125 111.875 C-186.55948769 106.45036854 -177.22602065 101.18325088 -167.85595703 95.96386719 C-161.42638635 92.37653576 -155.05061407 88.71654677 -148.72070312 84.95678711 C-142.04387732 81.00094219 -135.30441191 77.15590204 -128.5625 73.3125 C-119.36075433 68.06605457 -110.17074618 62.8005552 -101 57.5 C-92.05451435 52.3315878 -83.09636538 47.18583648 -74.125 42.0625 C-73.54528442 41.73139221 -72.96556885 41.40028442 -72.36828613 41.05914307 C-66.45992455 37.68484129 -60.55004718 34.31320594 -54.63859558 30.94432068 C-40.69916117 22.99938462 -26.79511163 14.99785584 -12.94921875 6.890625 C-11.29974224 5.92663304 -9.65002525 4.9630524 -8 4 C-7.28021973 3.57912109 -6.56043945 3.15824219 -5.81884766 2.72460938 C-1.11758428 0 -1.11758428 0 0 0 Z " fill="#0067AB" transform="translate(693,513)"/>
<path d="M0 0 C-2.55991624 2.01136276 -5.04590299 3.62845496 -8 5 C-8 4.01 -8 3.02 -8 2 C-4.77208445 -0.1519437 -3.71599191 -0.20086443 0 0 Z " fill="#CC1D24" transform="translate(183,185)"/>
</svg>
