<?xml version="1.0" standalone="no"?>
<!DOCTYPE svg PUBLIC "-//W3C//DTD SVG 20010904//EN"
 "http://www.w3.org/TR/2001/REC-SVG-20010904/DTD/svg10.dtd">
<svg version="1.0" xmlns="http://www.w3.org/2000/svg"
 width="300.000000pt" height="347.000000pt" viewBox="0 0 300.000000 347.000000"
 preserveAspectRatio="xMidYMid meet">
<metadata>
Created by potrace 1.10, written by Peter Selinger 2001-2011
</metadata>
<g transform="translate(0.000000,347.000000) scale(0.100000,-0.100000)"
fill="#000000" stroke="none">
<path d="M1400 3408 c-147 -84 -496 -285 -970 -558 -223 -128 -410 -237 -415
-244 -7 -6 -8 -28 -4 -51 4 -29 7 -33 8 -13 1 34 -2 32 291 200 135 77 281
162 325 188 44 26 103 60 130 74 28 15 64 35 80 45 34 21 534 308 611 352 l51
29 149 -86 c82 -48 255 -147 384 -222 592 -341 680 -392 753 -436 43 -25 81
-46 83 -46 2 0 21 -11 42 -24 51 -32 82 -41 82 -24 0 7 -10 19 -21 27 -22 13
-1314 759 -1419 818 l-55 32 -105 -61z"/>
<path d="M1415 3069 c-39 -22 -92 -53 -120 -68 -62 -35 -82 -46 -275 -158
-195 -114 -179 -104 -437 -253 -120 -68 -231 -136 -247 -150 l-29 -26 -4 -445
c-2 -271 -7 -445 -13 -447 -15 -5 -249 128 -264 150 -13 18 -14 18 -18 -7 -5
-24 3 -31 91 -82 53 -31 129 -75 168 -99 l73 -42 2 486 3 486 115 66 c63 37
221 128 350 202 129 75 337 195 462 267 125 72 230 131 233 131 3 0 257 -145
563 -321 306 -177 567 -326 580 -332 l22 -10 0 -292 0 -292 -581 -334 c-320
-184 -585 -333 -588 -332 -6 1 -423 242 -469 270 l-22 13 0 288 1 287 244 140
c135 77 248 140 251 139 3 0 72 -38 153 -85 l147 -84 -265 -153 c-146 -85
-285 -164 -308 -175 -24 -12 -43 -23 -42 -26 0 -4 74 -48 165 -99 l165 -93
474 273 c261 150 475 275 475 278 0 7 -953 553 -965 553 -5 0 -196 -107 -422
-238 l-413 -238 0 -481 0 -481 416 -240 c229 -132 419 -239 422 -238 8 2 279
158 986 568 275 160 502 296 504 303 2 6 -4 12 -12 12 -15 0 -42 -15 -159 -84
-18 -10 -95 -54 -172 -98 -192 -111 -241 -139 -465 -270 -194 -114 -304 -177
-390 -226 -25 -14 -98 -56 -163 -94 -65 -37 -124 -68 -132 -68 -7 0 -53 23
-102 51 -48 28 -106 61 -128 74 -39 21 -196 113 -380 220 -49 29 -109 63 -132
76 -24 13 -45 31 -49 39 -3 8 -5 218 -5 465 1 449 1 450 22 465 12 8 88 53
168 99 80 46 246 142 367 212 122 71 230 129 240 129 11 0 35 -10 54 -22 43
-26 85 -50 170 -98 36 -20 142 -81 235 -135 94 -54 225 -129 292 -167 68 -39
126 -75 129 -80 9 -15 -15 -32 -205 -140 -91 -52 -238 -137 -326 -188 -88 -51
-199 -115 -248 -142 l-87 -50 -93 52 c-161 92 -159 91 -146 106 6 7 43 32 82
55 162 94 335 193 377 216 125 70 114 91 -115 222 -51 29 -102 51 -118 51 -24
0 -115 -44 -187 -90 -8 -6 -78 -46 -155 -91 -77 -44 -150 -90 -162 -102 -23
-20 -23 -23 -23 -307 0 -241 2 -289 15 -308 14 -19 52 -44 185 -120 19 -11 78
-45 130 -76 138 -81 178 -99 210 -92 15 3 135 67 266 142 132 76 256 147 276
158 187 105 598 346 618 363 l25 21 -3 294 c-3 287 -3 293 -25 315 -17 17
-592 355 -807 475 -19 11 -48 27 -65 37 -166 99 -282 161 -300 161 -11 0 -52
-18 -90 -41z"/>
<path d="M2 1233 c3 -15 63 -53 223 -142 106 -59 672 -385 715 -411 25 -15 77
-45 115 -65 39 -21 77 -44 86 -51 8 -8 18 -14 21 -14 3 0 61 -32 129 -71 68
-40 135 -77 149 -83 14 -6 28 -15 32 -21 9 -13 22 1 15 17 -2 7 -238 146 -523
310 -286 163 -617 353 -738 422 -120 69 -221 126 -223 126 -2 0 -3 -8 -1 -17z"/>
<path d="M2985 1241 c-8 -7 -292 -171 -1368 -787 l-109 -62 -1 -191 c-2 -163
0 -190 12 -186 8 3 290 164 625 357 336 194 666 383 734 422 107 62 147 96
111 96 -10 0 -144 -71 -189 -100 -29 -19 -340 -197 -444 -254 -24 -14 -61 -35
-83 -49 -21 -13 -61 -36 -88 -51 -28 -14 -57 -30 -65 -36 -43 -27 -170 -101
-290 -168 -74 -41 -137 -78 -140 -81 -4 -6 -56 -34 -136 -76 l-29 -15 -3 142
-3 142 32 27 c18 15 44 33 58 40 14 8 89 50 166 94 77 45 165 95 195 112 30
17 127 72 215 123 88 51 183 105 210 120 28 15 73 41 100 57 28 16 57 32 65
37 8 4 36 19 61 34 25 15 121 70 212 122 138 79 167 99 167 118 0 24 -2 26
-15 13z"/>
<path d="M6 877 c2 -7 33 -29 67 -49 34 -20 132 -76 217 -125 85 -50 213 -124
285 -165 646 -374 874 -504 899 -514 9 -3 16 -2 16 4 0 9 -60 52 -115 82 -16
9 -59 34 -95 55 -74 42 -58 33 -325 187 -110 63 -256 148 -325 188 -69 40
-145 84 -170 98 -25 14 -74 42 -109 64 -34 21 -65 38 -68 38 -3 0 -33 17 -67
38 -81 51 -193 112 -205 112 -6 0 -8 -6 -5 -13z"/>
</g>
</svg>
