<?xml version="1.0" encoding="UTF-8"?>
<svg version="1.1" xmlns="http://www.w3.org/2000/svg" width="2000" height="802">
<path d="M0 0 C1.83911133 0.80932617 1.83911133 0.80932617 3.58203125 1.79296875 C4.58919189 2.35588623 4.58919189 2.35588623 5.61669922 2.93017578 C6.34131348 3.34509277 7.06592773 3.76000977 7.8125 4.1875 C8.59383301 4.62819824 9.37516602 5.06889648 10.18017578 5.52294922 C17.63111697 9.74471324 25.02075732 14.07355182 32.40942383 18.40307617 C40.24230937 22.98981252 48.1130427 27.50724628 56 32 C65.72143706 37.53951839 75.40895317 43.13375194 85.06689453 48.78344727 C95.59084625 54.93766742 106.15380137 61.02369996 116.71777344 67.10888672 C122.14659942 70.23680148 127.57319281 73.36858448 133 76.5 C135.16665583 77.75001879 137.3333225 79.00001878 139.5 80.25 C178.5 102.75 217.5 125.25 256.5 147.75 C257.57266113 148.36883057 258.64532227 148.98766113 259.75048828 149.62524414 C261.91557071 150.87435518 264.08060982 152.12354129 266.24560547 153.37280273 C271.68615706 156.51202309 277.12747216 159.64990563 282.5703125 162.78515625 C296.15889513 170.6145805 309.72661997 178.47854316 323.26269531 186.3984375 C325.06636944 187.45374452 326.8703975 188.50844688 328.67480469 189.5625 C331.0966883 190.97749172 333.51733537 192.3945707 335.9375 193.8125 C336.647854 194.22733643 337.35820801 194.64217285 338.09008789 195.06958008 C342.88473701 197.88473701 342.88473701 197.88473701 344 199 C344.11792601 201.8560542 344.17010632 204.68858568 344.18081665 207.54582214 C344.19162343 208.90670195 344.19162343 208.90670195 344.20264852 210.29507428 C344.22551549 213.35970809 344.24098714 216.42433366 344.25634766 219.48901367 C344.27078754 221.67644453 344.28554504 223.86387332 344.30059814 226.05130005 C344.43095696 246.03323983 344.4967384 266.01574553 344.54844093 285.99802685 C344.55545008 288.6725944 344.56257702 291.3471616 344.56982422 294.02172852 C344.57251716 295.01888011 344.57251716 295.01888011 344.5752645 296.03617618 C344.6053239 306.80230694 344.67008137 317.56794935 344.74851067 328.33382472 C344.82833979 339.38314206 344.87341565 350.43219325 344.88746679 361.48179036 C344.8963451 367.6874311 344.92070615 373.89213241 344.98213577 380.09749413 C345.03927636 385.93610074 345.0540842 391.77328113 345.03626251 397.6121254 C345.03714273 399.7559845 345.05346745 401.89990079 345.08630753 404.04350853 C345.32207711 420.27472247 345.32207711 420.27472247 342.03382492 424.56580925 C339.70418949 426.15441812 337.66246537 427.10929923 335 428 C333.99453125 428.59651367 332.9890625 429.19302734 331.953125 429.80761719 C331.06109375 430.29907227 330.1690625 430.79052734 329.25 431.296875 C327.73321655 432.13786743 327.73321655 432.13786743 326.18579102 432.99584961 C325.13447998 433.57471924 324.08316895 434.15358887 323 434.75 C315.8110787 438.74175552 308.63355882 442.73986478 301.5625 446.9375 C294.55287147 451.09803134 287.50198311 455.1832898 280.4375 459.25 C271.94343701 464.14145324 263.4623443 469.05387301 255 474 C241.26957662 482.02289258 227.48921851 489.95858364 213.70898438 497.89550781 C202.12318234 504.56956312 190.54446647 511.25464084 179 518 C165.26944812 526.02267511 151.48922034 533.95858259 137.70898438 541.89550781 C126.12318234 548.56956312 114.54446647 555.25464084 103 562 C91.45270484 568.74701194 79.87097973 575.43339318 68.28222656 582.10888672 C61.77782059 585.85651605 55.27624205 589.60904961 48.7746582 593.36157227 C43.22313708 596.56532462 37.66979203 599.76584577 32.11328125 602.9609375 C30.98245117 603.61199463 29.85162109 604.26305176 28.68652344 604.93383789 C26.46587797 606.21143211 24.24390576 607.48672345 22.02050781 608.75952148 C17.37295537 611.42911051 12.75689942 614.11588086 8.24609375 617.01171875 C7.55668701 617.4495166 6.86728027 617.88731445 6.15698242 618.33837891 C4.41089446 619.45921939 2.68109869 620.60533606 0.953125 621.75390625 C-2 623 -2 623 -4.71875 622.6015625 C-9.54504387 620.24587144 -14.13952388 617.5631658 -18.75 614.8125 C-20.91367549 613.53580222 -23.07775166 612.25978329 -25.2421875 610.984375 C-26.35819336 610.32501953 -27.47419922 609.66566406 -28.62402344 608.98632812 C-34.0212633 605.81074644 -39.44764 602.6862344 -44.875 599.5625 C-47.05991376 598.30341652 -49.24480949 597.04430177 -51.4296875 595.78515625 C-52.51475586 595.16012207 -53.59982422 594.53508789 -54.71777344 593.89111328 C-60.14659942 590.76319852 -65.57319281 587.63141552 -71 584.5 C-73.16665583 583.24998121 -75.3333225 581.99998122 -77.5 580.75 C-99.16666667 568.25 -120.83333333 555.75 -142.5 543.25 C-143.57386963 542.6305249 -144.64773926 542.0110498 -145.75415039 541.37280273 C-147.90721037 540.13052194 -150.06004478 538.88785012 -152.21264648 537.64477539 C-157.24101461 534.74163888 -162.27139814 531.84221133 -167.31021118 528.95724487 C-169.08432545 527.94122816 -170.85769919 526.92393072 -172.63085938 525.90625 C-174.84815314 524.63417708 -177.06681075 523.36447715 -179.28710938 522.09765625 C-180.29708984 521.51757812 -181.30707031 520.9375 -182.34765625 520.33984375 C-183.66262085 519.58755493 -183.66262085 519.58755493 -185.00415039 518.82006836 C-185.99278076 518.2194458 -186.98141113 517.61882324 -188 517 C-189.10156968 516.63042254 -189.10156968 516.63042254 -190.2253933 516.25337887 C-193.35825668 514.88794838 -194.90433237 513.73423622 -197 511 C-198.83831568 504.23582957 -198.13317513 496.78490805 -198.02172852 489.84814453 C-198.0191895 487.65024419 -198.02061554 485.45233621 -198.02571106 483.25444031 C-198.02829463 477.28944135 -197.97536314 471.32606938 -197.91254544 465.36144876 C-197.85630383 459.12751408 -197.85099848 452.89354255 -197.84031677 446.65939331 C-197.81551704 436.19647582 -197.75929284 425.73411551 -197.67895508 415.27148438 C-197.5963047 404.49644957 -197.53261859 393.72157698 -197.49438477 382.94628906 C-197.49202025 382.28176539 -197.48965574 381.61724172 -197.48721958 380.93258096 C-197.47547398 377.59875787 -197.46412097 374.26493367 -197.45291245 370.93110871 C-197.3588255 343.28699008 -197.20051083 315.64353704 -197 288 C-60.5 209.25 -60.5 209.25 -57.24609375 207.37280273 C-55.0923828 206.13023981 -52.93873633 204.88756511 -50.78515625 203.64477539 C-45.76315738 200.74685377 -40.74057193 197.84996651 -35.71557617 194.95724487 C-33.94954478 193.94052802 -32.18372569 192.92344342 -30.41796875 191.90625 C-28.21265845 190.63599127 -26.00695784 189.36640982 -23.80078125 188.09765625 C-22.79402344 187.51757812 -21.78726562 186.9375 -20.75 186.33984375 C-19.78449219 185.7866748 -18.81898438 185.23350586 -17.82421875 184.66357422 C-15.92882149 183.54711183 -14.05598563 182.39150682 -12.20703125 181.19970703 C-11.33433594 180.64009277 -10.46164062 180.08047852 -9.5625 179.50390625 C-8.80066406 178.99802979 -8.03882813 178.49215332 -7.25390625 177.97094727 C-4.34200468 176.71654599 -2.99076684 177.03424064 0 178 C2.2980957 179.0847168 2.2980957 179.0847168 4.67578125 180.44921875 C5.57321045 180.96009033 6.47063965 181.47096191 7.39526367 181.99731445 C8.35795166 182.55507568 9.32063965 183.11283691 10.3125 183.6875 C11.32868408 184.26910889 12.34486816 184.85071777 13.3918457 185.44995117 C21.50991587 190.10728784 29.59137458 194.82838396 37.66772461 199.55761719 C45.37525674 204.06735002 53.1174686 208.51453453 60.875 212.9375 C75.34964616 221.19140503 89.78222016 229.51717471 104.20898438 237.85449219 C107.43068275 239.71602672 110.65271079 241.57698839 113.875 243.4375 C114.94105469 244.05302734 116.00710938 244.66855469 117.10546875 245.30273438 C125.68995597 250.25453042 134.29580293 255.16824868 142.90472412 260.07736206 C151.93673971 265.22961544 160.93030103 270.44466451 169.90258789 275.70019531 C177.75754718 280.29395257 185.65509792 284.80994463 193.5625 289.3125 C203.11731855 294.75321419 212.62242744 300.25862905 222 306 C219.58310212 308.69407427 216.99835145 310.2670893 213.8359375 312.00390625 C212.8054126 312.57423584 211.7748877 313.14456543 210.71313477 313.73217773 C209.61155029 314.33618408 208.50996582 314.94019043 207.375 315.5625 C205.07865933 316.83455252 202.78308685 318.10799278 200.48828125 319.3828125 C199.3688916 320.00446289 198.24950195 320.62611328 197.09619141 321.26660156 C193.21917228 323.43714531 189.38204748 325.6677246 185.5625 327.9375 C178.59251545 332.07353479 171.58498433 336.14121387 164.5625 340.1875 C163.45527588 340.82550537 162.34805176 341.46351074 161.20727539 342.12084961 C158.93662932 343.42889477 156.66587642 344.73675448 154.39501953 346.04443359 C148.9283002 349.19332054 143.46425113 352.34683264 138 355.5 C135.83334689 356.7500235 133.66668021 358.00002347 131.5 359.25 C130.4275 359.86875 129.355 360.4875 128.25 361.125 C92.5 381.75 92.5 381.75 89.24951172 383.62524414 C87.08442929 384.87435518 84.91939018 386.12354129 82.75439453 387.37280273 C77.31384294 390.51202309 71.87252784 393.64990563 66.4296875 396.78515625 C56.84249432 402.30929054 47.25904314 407.83894401 37.70678711 413.42333984 C34.74164381 415.15586394 31.77329228 416.88279064 28.8046875 418.609375 C24.85709298 420.90736763 20.92832915 423.23426827 17.0078125 425.578125 C15.10954155 426.69819898 13.21111089 427.81800234 11.3125 428.9375 C10.44520264 429.46432373 9.57790527 429.99114746 8.68432617 430.53393555 C7.87713135 431.00613525 7.06993652 431.47833496 6.23828125 431.96484375 C5.53743408 432.3837085 4.83658691 432.80257324 4.11450195 433.23413086 C0.79926316 434.43490491 -1.69309226 433.57512268 -4.83911133 432.19067383 C-5.4142749 431.86607178 -5.98943848 431.54146973 -6.58203125 431.20703125 C-7.25363281 430.83167236 -7.92523438 430.45631348 -8.6171875 430.06958008 C-9.34164063 429.65474365 -10.06609375 429.23990723 -10.8125 428.8125 C-11.59238281 428.37252686 -12.37226563 427.93255371 -13.17578125 427.47924805 C-21.69339544 422.65232274 -30.13761445 417.69679931 -38.5859375 412.75 C-44.84837427 409.08475276 -51.12183184 405.4389192 -57.40405273 401.80770874 C-59.08588644 400.83511903 -60.7665899 399.8605757 -62.44726562 398.88598633 C-63.47787109 398.29068115 -64.50847656 397.69537598 -65.5703125 397.08203125 C-66.47539551 396.55843018 -67.38047852 396.0348291 -68.31298828 395.49536133 C-71.16776809 393.9066346 -74.06809966 392.44066125 -77 391 C-77 390.34 -77 389.68 -77 389 C-76.27748047 388.58862793 -75.55496094 388.17725586 -74.81054688 387.75341797 C-62.17548317 380.55590142 -49.54821437 373.34826509 -37 366 C-27.77201265 360.5964046 -18.50005309 355.27347627 -9.20898438 349.97949219 C-1.11255751 345.3649713 6.9580009 340.70893932 15 336 C23.94994008 330.76073397 32.93265136 325.5816014 41.9375 320.4375 C42.52877686 320.09952393 43.12005371 319.76154785 43.72924805 319.41333008 C50.46258997 315.56584067 57.20871144 311.74438019 64 308 C55.33412691 302.59440452 46.57650016 297.40769155 37.6875 292.375 C35.24382462 290.98737365 32.80132147 289.59769764 30.359375 288.20703125 C29.44308571 287.68534615 29.44308571 287.68534615 28.50828552 287.15312195 C24.307712 284.7571935 20.12489526 282.33242429 15.953125 279.88671875 C14.85395752 279.24234863 13.75479004 278.59797852 12.62231445 277.93408203 C10.53869073 276.70962366 8.45643835 275.48282798 6.37573242 274.25341797 C5.44607666 273.7070166 4.5164209 273.16061523 3.55859375 272.59765625 C2.74704834 272.11820557 1.93550293 271.63875488 1.09936523 271.14477539 C-1.08464027 269.87370671 -1.08464027 269.87370671 -4 269 C-6.47200949 270.04261792 -6.47200949 270.04261792 -9.13671875 271.69140625 C-10.17634766 272.29919922 -11.21597656 272.90699219 -12.28710938 273.53320312 C-13.97030273 274.53770508 -13.97030273 274.53770508 -15.6875 275.5625 C-16.86335088 276.25424447 -18.03979189 276.94498671 -19.21679688 277.63476562 C-21.63900044 279.05618515 -24.0578927 280.48299836 -26.47412109 281.91455078 C-31.63367788 284.96997883 -36.81828715 287.98236068 -42 291 C-43.98178585 292.15752638 -45.96355655 293.31507868 -47.9453125 294.47265625 C-59.77390343 301.37234686 -71.64871161 308.19262603 -83.51660156 315.02441406 C-85.87346291 316.38115258 -88.23006924 317.73833221 -90.58642578 319.09594727 C-92.79006869 320.36546119 -94.99413955 321.63423268 -97.19873047 322.90209961 C-98.20564941 323.4822583 -99.21256836 324.06241699 -100.25 324.66015625 C-101.55710938 325.41244507 -101.55710938 325.41244507 -102.890625 326.17993164 C-103.91671875 326.7805542 -104.9428125 327.38117676 -106 328 C-106.80784376 328.34329881 -107.61568752 328.68659761 -108.4480114 329.04029942 C-111.38272334 330.4403145 -113.62002223 331.7738316 -116 334 C-117.48133089 338.24637685 -117.32492475 342.33648739 -117.22705078 346.79833984 C-117.24387154 348.73086105 -117.24387154 348.73086105 -117.2610321 350.7024231 C-117.29055749 354.22367319 -117.25882211 357.74199215 -117.21586847 361.26300383 C-117.18141761 364.94663961 -117.20359243 368.62992998 -117.21969604 372.31362915 C-117.24159574 379.28373769 -117.21275677 386.25267087 -117.165573 393.22261679 C-117.11432029 401.1598045 -117.11980391 409.09663811 -117.12999368 417.03394771 C-117.14968012 433.3563999 -117.09831105 449.67782292 -117 466 C-115.84779716 466.44940948 -115.84779716 466.44940948 -114.6723175 466.90789795 C-111.69766389 468.12355638 -109.01740078 469.60310664 -106.23046875 471.203125 C-104.5451001 472.16810913 -104.5451001 472.16810913 -102.82568359 473.15258789 C-101.61288279 473.85159872 -100.40015681 474.55073939 -99.1875 475.25 C-97.92540022 475.9747148 -96.66319169 476.69924024 -95.40087891 477.42358398 C-86.55723637 482.50374563 -77.74132033 487.63125603 -68.93774414 492.78051758 C-61.68117522 497.02456363 -54.40803357 501.23903895 -47.125 505.4375 C-46.06128174 506.05077148 -44.99756348 506.66404297 -43.90161133 507.29589844 C-38.7774109 510.24915457 -33.65205281 513.20039544 -28.52600098 516.1504364 C-26.11782525 517.53659738 -23.71009301 518.92352749 -21.3024292 520.31057739 C-19.59741766 521.29239298 -17.8917333 522.27303984 -16.18603516 523.25366211 C-15.15655762 523.84671143 -14.12708008 524.43976074 -13.06640625 525.05078125 C-12.15834229 525.57325439 -11.25027832 526.09572754 -10.31469727 526.6340332 C-8.50873799 527.69977966 -6.74478871 528.83680752 -5 530 C-0.8628629 529.67505992 2.15004993 527.98966809 5.69921875 525.9296875 C7.36911865 524.96760376 7.36911865 524.96760376 9.07275391 523.98608398 C10.27773761 523.28250636 11.48265113 522.5788085 12.6875 521.875 C13.94411816 521.14786085 15.20112306 520.42138967 16.45849609 519.69555664 C19.04627864 518.2003235 21.63175689 516.7012215 24.21533203 515.19873047 C28.78137489 512.54399367 33.35902504 509.90951669 37.9362793 507.27416992 C43.29397805 504.18819123 48.64674538 501.09367941 54 498 C67.94844368 489.93910696 81.91003888 481.90290574 95.90472412 473.92263794 C103.96263303 469.32605725 111.99412773 464.68667368 120 460 C128.55549411 454.99254896 137.14024245 450.03845141 145.75 445.125 C146.3332605 444.79211975 146.916521 444.4592395 147.51745605 444.11627197 C152.27436898 441.40199484 157.03290718 438.69057169 161.79150391 435.97924805 C165.94508974 433.61248568 170.09804261 431.24461806 174.25 428.875 C175.12537415 428.37543793 175.12537415 428.37543793 176.01843262 427.86578369 C185.018365 422.72728561 193.97964838 417.52511401 202.92285156 412.28857422 C211.17062624 407.4662316 219.46142246 402.72121155 227.76483154 397.99560547 C234.21198426 394.32624277 240.64521388 390.63664272 247.0390625 386.875 C248.14894531 386.22273438 249.25882813 385.57046875 250.40234375 384.8984375 C252.50880832 383.65753837 254.61307606 382.41290045 256.71484375 381.1640625 C257.64683594 380.61492187 258.57882812 380.06578125 259.5390625 379.5 C260.35584473 379.0153125 261.17262695 378.530625 262.01416016 378.03125 C264 377 264 377 266 377 C266 333.11 266 289.22 266 244 C263.525 243.01 263.525 243.01 261 242 C259.08344321 240.974849 257.1849447 239.91556831 255.30078125 238.83203125 C254.18751465 238.19386475 253.07424805 237.55569824 251.92724609 236.89819336 C250.72228318 236.20304466 249.5173691 235.5078113 248.3125 234.8125 C247.05565201 234.09031382 245.79865088 233.3683941 244.54150391 232.64672852 C241.31362852 230.79256933 238.08810651 228.93436047 234.86346436 227.07458496 C232.00474796 225.42607817 229.14481546 223.77968312 226.28515625 222.1328125 C220.92721891 219.04520824 215.57207499 215.95279067 210.21777344 212.85888672 C204.81329355 209.73675395 199.40652588 206.61858796 194 203.5 C191.8333225 202.25001878 189.66665583 201.00001879 187.5 199.75 C185.89125 198.821875 185.89125 198.821875 184.25 197.875 C44.5 117.25 44.5 117.25 41.24438477 115.37158203 C39.0966418 114.13261766 36.94869545 112.89400576 34.80053711 111.65576172 C29.70820563 108.71985895 24.61808305 105.78030245 19.5350647 102.82830811 C17.12565992 101.42931947 14.7150991 100.03232971 12.30444336 98.63549805 C10.59701018 97.64501929 8.89126028 96.6516406 7.18554688 95.65820312 C6.15623047 95.06201172 5.12691406 94.46582031 4.06640625 93.8515625 C3.15834229 93.32385254 2.25027832 92.79614258 1.31469727 92.25244141 C-1.04741501 90.8878949 -1.04741501 90.8878949 -4 90 C-6.4391459 91.02618933 -6.4391459 91.02618933 -9.06640625 92.65625 C-10.09572266 93.25888672 -11.12503906 93.86152344 -12.18554688 94.48242188 C-13.85713867 95.48112305 -13.85713867 95.48112305 -15.5625 96.5 C-16.73308997 97.18922894 -17.90432489 97.87736357 -19.07617188 98.56445312 C-21.51311 99.99445462 -23.94718843 101.42915344 -26.37939453 102.8671875 C-31.8939538 106.12244075 -37.44879714 109.30779361 -43 112.5 C-45.16685938 113.74966591 -47.3335254 114.99966715 -49.5 116.25 C-134 165 -134 165 -218.5 213.75 C-219.57403076 214.36963623 -220.64806152 214.98927246 -221.75463867 215.62768555 C-223.90583224 216.86875254 -226.05703655 218.10980093 -228.20825195 219.35083008 C-233.25962999 222.26498344 -238.3109031 225.17931818 -243.36178589 228.09432983 C-245.15066918 229.12673478 -246.93958717 230.15907956 -248.72851562 231.19140625 C-250.97337636 232.48685948 -253.2181719 233.7824257 -255.46289062 235.078125 C-256.9875293 235.95791016 -256.9875293 235.95791016 -258.54296875 236.85546875 C-259.43008545 237.36746826 -260.31720215 237.87946777 -261.23120117 238.40698242 C-264 240 -264 240 -267.61806583 241.53800583 C-269.7998605 242.80062446 -270.80082679 243.43683331 -271.64967239 245.83696318 C-271.90365931 248.24353752 -271.92617303 250.56513105 -271.87974548 252.98492432 C-271.89484227 254.36212446 -271.89484227 254.36212446 -271.91024405 255.76714683 C-271.93553498 258.85111071 -271.91083621 261.93265951 -271.88647461 265.01660156 C-271.8943604 267.22407281 -271.90531919 269.43153491 -271.91912842 271.63897705 C-271.9479206 277.63880796 -271.93358915 283.63786116 -271.91168666 289.63769245 C-271.89608385 295.90514986 -271.91990152 302.17245236 -271.93959045 308.43988037 C-271.96731144 318.96160717 -271.9706408 329.48314207 -271.95532227 340.00488281 C-271.93961104 350.8421773 -271.93857007 361.67930946 -271.95727539 372.51660156 C-271.95842332 373.18463768 -271.95957125 373.85267379 -271.96075397 374.54095343 C-271.96660338 377.89230331 -271.97274137 381.2436526 -271.97902286 384.5950017 C-272.03011293 412.39671939 -272.03137906 440.19826176 -272 468 C-274.24853257 466.88271725 -276.49629901 465.76393736 -278.74365234 464.64428711 C-279.37702011 464.32976341 -280.01038788 464.01523972 -280.66294861 463.691185 C-285.09783621 461.4796994 -289.39501845 459.13878985 -293.625 456.5625 C-302.38872748 451.31739191 -311.260974 446.26718159 -320.14892578 441.23657227 C-322.38804357 439.96358693 -324.61395844 438.66708043 -326.82563496 437.3469944 C-329.81888755 435.60191223 -332.86009691 434.13787907 -336.02067089 432.720541 C-349.23891551 426.41745756 -349.23891551 426.41745756 -352.15356469 420.76145983 C-353.98016993 414.35273267 -353.60593301 407.76722848 -353.41333008 401.17041016 C-353.4224346 398.97145555 -353.44022287 396.77252246 -353.46598816 394.57369995 C-353.5100079 388.62916955 -353.4298735 382.69226072 -353.32426286 376.74874544 C-353.23239078 370.52169886 -353.24737942 364.2948262 -353.24845886 358.06723022 C-353.23454183 347.61730458 -353.14460996 337.17011604 -353.00317383 326.72119141 C-352.85785709 315.9792118 -352.78012554 305.23955981 -352.77758789 294.49658203 C-352.77742205 293.83404012 -352.77725621 293.17149821 -352.77708534 292.48887928 C-352.77685109 291.49674484 -352.77685109 291.49674484 -352.7766121 290.48456728 C-352.77279076 277.61262879 -352.70037079 264.74177282 -352.60513854 251.87021971 C-352.58203056 248.16395177 -352.57120488 244.45781194 -352.56287575 240.75148392 C-352.54605152 234.93097404 -352.4829161 229.11272157 -352.38383675 223.29304886 C-352.35435528 221.15746593 -352.34005682 219.02161163 -352.34201431 216.88582611 C-352.3416716 200.72906411 -352.3416716 200.72906411 -349.0113287 196.43712234 C-346.68962384 194.85442025 -344.65174288 193.8917799 -342 193 C-341.03118896 192.42443359 -340.06237793 191.84886719 -339.06420898 191.25585938 C-337.79299194 190.55686523 -337.79299194 190.55686523 -336.49609375 189.84375 C-335.52115967 189.30379395 -334.54622559 188.76383789 -333.54174805 188.20751953 C-332.51734619 187.64403809 -331.49294434 187.08055664 -330.4375 186.5 C-321.965813 181.79885433 -313.54374102 177.02848622 -305.1875 172.125 C-296.4915545 167.0240304 -287.75993887 161.9899162 -279 157 C-270.30581933 152.04650609 -261.63496896 147.05630535 -253 142 C-243.77199471 136.5964354 -234.5000533 131.27347639 -225.20898438 125.97949219 C-217.11255782 121.36497148 -209.04198543 116.70896206 -201 112 C-192.4048271 106.9681021 -183.77687778 101.99610876 -175.125 97.0625 C-162.79974804 90.03396493 -150.50277933 82.95759566 -138.21777344 75.85888672 C-132.81329355 72.73675395 -127.40652588 69.61858796 -122 66.5 C-119.8333225 65.25001878 -117.66665583 64.00001879 -115.5 62.75 C-93.83333333 50.25 -72.16666667 37.75 -50.5 25.25 C-49.42580811 24.62996094 -48.35161621 24.00992187 -47.24487305 23.37109375 C-45.09639154 22.13221313 -42.94682816 20.89520666 -40.79614258 19.66015625 C-35.70514784 16.73355935 -30.62752266 13.78873722 -25.5866394 10.7767334 C-23.20019442 9.35234513 -20.80753319 7.93859147 -18.41430664 6.52563477 C-16.72380162 5.52156131 -15.04243962 4.50214482 -13.36132812 3.48242188 C-12.33845703 2.87978516 -11.31558594 2.27714844 -10.26171875 1.65625 C-9.36412842 1.11806641 -8.46653809 0.57988281 -7.54174805 0.02539062 C-4.48189611 -1.20901319 -3.10399514 -1.00840291 0 0 Z " fill="#DA2128" transform="translate(351,1)"/>
<path d="M0 0 C17.74938788 9.6814843 35.43975521 19.42839919 52.87670898 29.66259766 C60.47185293 34.11846524 68.10124113 38.51201369 75.75 42.875 C76.33383453 43.20812195 76.91766907 43.5412439 77.51919556 43.88446045 C80.48796371 45.57816928 83.4571963 47.2710615 86.42675781 48.96337891 C92.32801689 52.32652051 98.2269235 55.69378067 104.125 59.0625 C104.70536011 59.39393005 105.28572021 59.72536011 105.88366699 60.0668335 C115.34199473 65.4692909 124.78028384 70.90595541 134.21142578 76.35571289 C142.12762875 80.92726918 150.06023314 85.46955939 158 90 C168.08733474 95.75584544 178.15514953 101.54464237 188.2109375 107.35546875 C196.12733791 111.92704623 204.0600753 116.46946933 212 121 C222.08733474 126.75584544 232.15514953 132.54464237 242.2109375 138.35546875 C250.12733791 142.92704623 258.0600753 147.46946933 266 152 C276.07707633 157.74999198 286.1348837 163.53250457 296.18017578 169.33789062 C305.53962229 174.74322427 314.92215925 180.10755723 324.3125 185.45898438 C325.40304687 186.08095703 326.49359375 186.70292969 327.6171875 187.34375 C328.67518555 187.94316406 329.73318359 188.54257812 330.82324219 189.16015625 C333.00614209 190.42439954 335.1675634 191.7262389 337.30957031 193.05859375 C338.8927002 194.03505859 338.8927002 194.03505859 340.5078125 195.03125 C341.44512207 195.62486328 342.38243164 196.21847656 343.34814453 196.83007812 C346.52690177 198.23245381 347.75161843 198.12243848 351 197 C353.37868183 195.86897154 353.37868183 195.86897154 355.75390625 194.40234375 C356.67606934 193.85650635 357.59823242 193.31066895 358.54833984 192.74829102 C359.5430127 192.15072998 360.53768555 191.55316895 361.5625 190.9375 C363.73233205 189.6523941 365.90293628 188.3685913 368.07421875 187.0859375 C369.20907715 186.41401367 370.34393555 185.74208984 371.51318359 185.04980469 C377.26438349 181.65816952 383.07234964 178.36498275 388.875 175.0625 C391.2477727 173.71029575 393.62008013 172.35727726 395.9921875 171.00390625 C396.57783981 170.66981247 397.16349213 170.33571869 397.76689148 169.99150085 C403.85662207 166.51514022 409.92892395 163.00880096 416 159.5 C424.94549875 154.33161038 433.90363452 149.18583654 442.875 144.0625 C443.45471558 143.73139221 444.03443115 143.40028442 444.63171387 143.05914307 C450.54016638 139.68478936 456.45013089 136.31309538 462.36167908 132.94416809 C465.32490498 131.25523789 468.28758312 129.56534878 471.25 127.875 C471.83276703 127.54253265 472.41553406 127.21006531 473.01596069 126.86752319 C481.1020964 122.25230787 489.15558097 117.58393664 497.1875 112.875 C506.44051231 107.45036854 515.77397935 102.18325088 525.14404297 96.96386719 C531.57361365 93.37653576 537.94938593 89.71654677 544.27929688 85.95678711 C550.95612268 82.00094219 557.69558809 78.15590204 564.4375 74.3125 C573.63924567 69.06605457 582.82925382 63.8005552 592 58.5 C600.94548565 53.3315878 609.90363462 48.18583648 618.875 43.0625 C619.45471558 42.73139221 620.03443115 42.40028442 620.63171387 42.05914307 C626.54008913 38.68483348 632.4499695 35.31317147 638.3614502 31.94430542 C641.32474844 30.25532259 644.28741838 28.56523941 647.25 26.875 C647.82778198 26.54552368 648.40556396 26.21604736 649.00085449 25.87658691 C658.3813413 20.52542613 667.71948497 15.10446958 677.01269531 9.60302734 C678.37152832 8.80372803 678.37152832 8.80372803 679.7578125 7.98828125 C680.92014404 7.30052612 680.92014404 7.30052612 682.10595703 6.59887695 C686.33532687 4.26226964 690.66769279 2.1382356 695 0 C695.55850639 11.49022414 695.98363052 22.9771813 696.24349213 34.47825813 C696.36830139 39.82097665 696.53708983 45.15435963 696.81054688 50.49169922 C698.52530884 84.85450593 698.52530884 84.85450593 692.79046631 93.2250061 C687.255189 98.22777371 680.97036723 100.79066374 673.9263916 103.0246582 C670.02194222 104.32597846 666.93299704 106.16344784 663.4453125 108.33984375 C661.3391042 109.54005021 659.2323432 110.73928733 657.125 111.9375 C654.75472429 113.28821444 652.38510251 114.6400734 650.015625 115.9921875 C649.42953461 116.32656326 648.84344421 116.66093903 648.23959351 117.00544739 C638.87883769 122.3489471 629.55026824 127.7484692 620.21777344 133.14111328 C614.81329355 136.26324605 609.40652588 139.38141204 604 142.5 C601.8333225 143.74998122 599.66665583 144.99998121 597.5 146.25 C578 157.5 578 157.5 558.5 168.75 C557.42766113 169.36866943 556.35532227 169.98733887 555.25048828 170.62475586 C553.08223736 171.8756448 550.91394303 173.12645852 548.74560547 174.37719727 C543.35282085 177.48798335 537.96077907 180.60004238 532.5703125 183.71484375 C520.76370516 190.53502637 508.93973 197.3232326 497.09527588 204.07736206 C488.05670572 209.23335445 479.05722862 214.45320673 470.07763672 219.71118164 C461.82076358 224.53872836 453.51905969 229.28548671 445.20898438 234.02050781 C437.11255782 238.63502852 429.04198543 243.29103794 421 248 C411.2397893 253.71394948 401.43294287 259.34352476 391.60644531 264.94238281 C385.63563534 268.34541313 379.67257317 271.76081643 373.7265625 275.20703125 C373.13638336 275.54882919 372.54620422 275.89062714 371.93814087 276.24278259 C369.13166232 277.86844131 366.32664782 279.4965336 363.52392578 281.12866211 C361.55888115 282.26775666 359.58520449 283.39214406 357.6015625 284.49853516 C355.0324513 285.92321997 355.0324513 285.92321997 352.8984375 287.51318359 C350.8315951 288.89090277 349.46458382 289.65039722 347 290 C342.7652973 288.71012854 339.23398038 286.46525625 335.5 284.125 C334.40486084 283.4745874 333.30972168 282.8241748 332.18139648 282.15405273 C329.89445048 280.79349782 327.61670091 279.424372 325.34716797 278.03564453 C321.2632934 275.55195772 317.13345587 273.15434327 312.99609375 270.76123047 C310.02373269 269.04005135 307.05993949 267.30486485 304.09765625 265.56640625 C297.74953385 261.84665088 291.37637887 258.17104751 285 254.5 C276.65190241 249.69167922 268.31756684 244.8609424 260 240 C248.45277514 233.25286886 236.87097881 226.5666063 225.28222656 219.89111328 C219.85340058 216.76319852 214.42680719 213.63141552 209 210.5 C206.83334417 209.24998121 204.6666775 207.99998122 202.5 206.75 C172.16666667 189.25 141.83333333 171.75 111.5 154.25 C110.42733887 153.63116943 109.35467773 153.01233887 108.24951172 152.37475586 C106.08442929 151.12564482 103.91939018 149.87645871 101.75439453 148.62719727 C96.31384294 145.48797691 90.87252784 142.35009437 85.4296875 139.21484375 C74.97793728 133.19252629 64.53706147 127.15321004 54.125 121.0625 C40.80696858 113.27474332 27.40371675 105.63901601 14 98 C7.07 94.04 7.07 94.04 0 90 C0 60.3 0 30.6 0 0 Z " fill="#0067AB" transform="translate(0,512)"/>
<path d="M0 0 C17.74938788 9.6814843 35.43975521 19.42839919 52.87670898 29.66259766 C60.47185293 34.11846524 68.10124113 38.51201369 75.75 42.875 C76.33383453 43.20812195 76.91766907 43.5412439 77.51919556 43.88446045 C80.48796371 45.57816928 83.4571963 47.2710615 86.42675781 48.96337891 C92.32801689 52.32652051 98.2269235 55.69378067 104.125 59.0625 C104.70536011 59.39393005 105.28572021 59.72536011 105.88366699 60.0668335 C115.34199473 65.4692909 124.78028384 70.90595541 134.21142578 76.35571289 C142.12762875 80.92726918 150.06023314 85.46955939 158 90 C168.08733474 95.75584544 178.15514953 101.54464237 188.2109375 107.35546875 C196.12733791 111.92704623 204.0600753 116.46946933 212 121 C222.08733474 126.75584544 232.15514953 132.54464237 242.2109375 138.35546875 C250.12733791 142.92704623 258.0600753 147.46946933 266 152 C276.07794198 157.75048592 286.13748184 163.53200619 296.18237305 169.34008789 C301.90990459 172.64918288 307.64559137 175.94313107 313.39453125 179.21484375 C314.01528534 179.56837921 314.63603943 179.92191467 315.27560425 180.28616333 C318.25701869 181.98397198 321.23963195 183.67954959 324.22460938 185.37109375 C326.34261902 186.57636302 328.44873747 187.80290845 330.53909302 189.05552673 C333.92560785 191.05305821 333.92560785 191.05305821 337.43197632 192.39698792 C341.21539105 194.13426949 344.40989906 195.67389213 347 199 C349.35069775 205.43223683 348.50820397 212.74859648 348.26953125 219.46875 C348.24526232 221.4750776 348.2267678 223.48148263 348.21379089 225.48791504 C348.16432135 230.7507674 348.03679658 236.00890089 347.89263916 241.26989746 C347.75927172 246.64542798 347.70020002 252.0217269 347.63476562 257.3984375 C347.49564427 267.93435708 347.27399779 278.46678513 347 289 C342.17008895 287.46855447 338.06203586 285.43989217 333.75 282.8125 C332.23381085 281.90501595 330.71683112 280.99885194 329.19921875 280.09375 C328.37083496 279.59875 327.54245117 279.10375 326.68896484 278.59375 C321.67332069 275.62097671 316.61579365 272.72064828 311.5625 269.8125 C310.45825684 269.17618652 309.35401367 268.53987305 308.21630859 267.88427734 C304.81124162 265.92220982 301.40566474 263.96102974 298 262 C284.3242105 254.12380667 270.66038714 246.22879716 257.03417969 238.26708984 C246.47379718 232.10080946 235.87873234 225.9950405 225.28222656 219.89111328 C219.85340058 216.76319852 214.42680719 213.63141552 209 210.5 C206.83334417 209.24998121 204.6666775 207.99998122 202.5 206.75 C172.16666667 189.25 141.83333333 171.75 111.5 154.25 C110.42733887 153.63116943 109.35467773 153.01233887 108.24951172 152.37475586 C106.08442929 151.12564482 103.91939018 149.87645871 101.75439453 148.62719727 C96.31384294 145.48797691 90.87252784 142.35009437 85.4296875 139.21484375 C74.97793728 133.19252629 64.53706147 127.15321004 54.125 121.0625 C40.80696858 113.27474332 27.40371675 105.63901601 14 98 C7.07 94.04 7.07 94.04 0 90 C0 60.3 0 30.6 0 0 Z " fill="#FBAE16" transform="translate(0,512)"/>
<path d="M0 0 C14.31375 -0.04125 28.6275 -0.0825 43.375 -0.125 C50.06789307 -0.15231201 50.06789307 -0.15231201 56.89599609 -0.18017578 C129.36951204 -0.35419808 129.36951204 -0.35419808 147.375 16.1796875 C161.3806819 31.86874462 161.34587855 51.58054896 161.26074219 71.45825195 C161.25003153 74.42875639 161.26068758 77.39865458 161.2734375 80.36914062 C161.28847694 100.13117463 160.76625522 119.44034272 147 135 C128.72817662 152.63660662 99.40535679 150.15720406 75.9765625 150.09765625 C74.02498402 150.09618248 72.07340513 150.09516445 70.12182617 150.09460449 C62.95621135 150.08940203 55.79060503 150.07544092 48.625 150.0625 C24.555625 150.0315625 24.555625 150.0315625 0 150 C0 100.5 0 51 0 0 Z M48 36 C48 61.74 48 87.48 48 114 C55.239375 114.061875 62.47875 114.12375 69.9375 114.1875 C72.20488037 114.21481201 74.47226074 114.24212402 76.80834961 114.27026367 C78.63134226 114.27903604 80.45434085 114.28667819 82.27734375 114.29296875 C83.20293091 114.30831665 84.12851807 114.32366455 85.08215332 114.33947754 C92.40140633 114.34238547 98.62809975 113.1257632 104.875 109.1875 C111.32213574 102.55074262 111.16352739 94.65212211 111.203125 85.984375 C111.21167511 84.52877167 111.21167511 84.52877167 111.22039795 83.04376221 C111.22982772 80.99289025 111.23637388 78.94200328 111.24023438 76.89111328 C111.24992292 73.77479186 111.28095886 70.6591351 111.3125 67.54296875 C111.3190326 65.54427472 111.32428206 63.54557601 111.328125 61.546875 C111.3404718 60.62469177 111.3528186 59.70250854 111.36553955 58.75238037 C111.3418653 51.77801036 110.62002392 44.91945522 105.8125 39.5625 C98.84773211 35.6931845 91.6990975 35.72314193 83.9375 35.8046875 C83.02162109 35.80670166 82.10574219 35.80871582 81.16210938 35.81079102 C77.77468788 35.82117327 74.38733836 35.84909521 71 35.875 C59.615 35.936875 59.615 35.936875 48 36 Z " fill="#221E1F" transform="translate(1524,201)"/>
<path d="M0 0 C15.84 0 31.68 0 48 0 C48 18.48 48 36.96 48 56 C67.8 56 87.6 56 108 56 C108 37.52 108 19.04 108 0 C123.84 0 139.68 0 156 0 C156 49.5 156 99 156 150 C140.16 150 124.32 150 108 150 C108 130.86 108 111.72 108 92 C88.2 92 68.4 92 48 92 C48 111.14 48 130.28 48 150 C32.16 150 16.32 150 0 150 C0 100.5 0 51 0 0 Z " fill="#221E1F" transform="translate(1017,201)"/>
<path d="M0 0 C1.23306885 0.00142502 2.4661377 0.00285004 3.73657227 0.00431824 C4.75631638 0.00147072 4.75631638 0.00147072 5.79666138 -0.00143433 C8.04888357 -0.00514579 10.30078487 0.00556723 12.55297852 0.01676941 C14.11474571 0.01796114 15.67651362 0.01841439 17.23828125 0.01815796 C20.51347329 0.01972347 23.78855613 0.02801814 27.0637207 0.04142761 C31.2672571 0.05841756 35.4706734 0.06224198 39.67424011 0.06148243 C42.89979199 0.06175404 46.12531748 0.06723378 49.3508606 0.07448387 C50.90104981 0.07767172 52.45124201 0.07963822 54.00143433 0.08037758 C56.16580321 0.08253992 58.33004342 0.09128183 60.49438477 0.10197449 C62.34398804 0.10769218 62.34398804 0.10769218 64.23095703 0.11352539 C67.11547852 0.24723816 67.11547852 0.24723816 69.11547852 1.24723816 C69.98068237 3.12336731 69.98068237 3.12336731 70.86108398 5.62858582 C71.36580482 7.04710342 71.36580482 7.04710342 71.88072205 8.49427795 C72.24436356 9.53939545 72.60800507 10.58451294 72.98266602 11.66130066 C73.56275169 13.29943222 73.56275169 13.29943222 74.15455627 14.97065735 C74.99635772 17.34996012 75.83490123 19.73041742 76.67062378 22.11186218 C78.68617498 27.85433528 80.72110471 33.58991392 82.75494957 39.32592773 C83.46124936 41.31864808 84.1666832 43.3116735 84.87202454 45.30473328 C89.68573677 58.89802569 94.61208437 72.44968291 99.55297852 85.99723816 C100.388556 88.29121814 101.2240064 90.58524441 102.05932617 92.87931824 C103.65879007 97.27149846 105.25869373 101.66351794 106.85913086 106.05534363 C107.42443512 107.60665985 107.42443512 107.60665985 108.00115967 109.1893158 C108.73360282 111.19929194 109.46606483 113.20926122 110.19854736 115.21922302 C112.13941441 120.54622137 114.07741518 125.87424153 116.01028442 131.20414734 C116.57424956 132.75756206 117.13938859 134.31055118 117.70578003 135.86308289 C118.46505634 137.94451601 119.22047561 140.02730697 119.97485352 142.11051941 C120.3921875 143.25818787 120.80952148 144.40585632 121.23950195 145.58830261 C122.11547852 148.24723816 122.11547852 148.24723816 122.11547852 150.24723816 C105.94547852 150.24723816 89.77547852 150.24723816 73.11547852 150.24723816 C67.44797222 136.64522305 67.44797222 136.64522305 65.80297852 131.62223816 C65.4768457 130.63997253 65.15071289 129.65770691 64.81469727 128.64567566 C64.11547852 126.24723816 64.11547852 126.24723816 64.11547852 124.24723816 C43.32547852 124.24723816 22.53547852 124.24723816 1.11547852 124.24723816 C0.78547852 126.55723816 0.45547852 128.86723816 0.11547852 131.24723816 C-2.19452148 137.51723816 -4.50452148 143.78723816 -6.88452148 150.24723816 C-23.38452148 150.24723816 -39.88452148 150.24723816 -56.88452148 150.24723816 C-56.20652178 146.85723963 -55.55148741 144.03445648 -54.42016602 140.83903503 C-54.12044891 139.98734741 -53.82073181 139.13565979 -53.51193237 138.25816345 C-53.1837149 137.33674561 -52.85549744 136.41532776 -52.51733398 135.46598816 C-52.17098907 134.48543457 -51.82464417 133.50488098 -51.46780396 132.49461365 C-50.31852995 129.24424232 -49.16414843 125.99571146 -48.00952148 122.74723816 C-47.19912776 120.45986432 -46.38890932 118.17242838 -45.57885742 115.88493347 C-37.86196346 94.11291569 -30.0683179 72.36833914 -22.25144958 50.63204956 C-20.04576906 44.49420927 -17.85217302 38.35225091 -15.67190552 32.20533752 C-14.3627546 28.51440371 -13.04982129 24.82482049 -11.73669434 21.13529968 C-11.13254229 19.43411137 -10.53037126 17.73221807 -9.93029785 16.02958679 C-9.1166745 13.72141166 -8.29632033 11.41573801 -7.47436523 9.11051941 C-7.23884445 8.43622391 -7.00332367 7.76192841 -6.76066589 7.06719971 C-4.35799319 0.37353239 -4.35799319 0.37353239 0 0 Z M32.11547852 33.24723816 C29.5060458 41.05241011 26.89821428 48.85811436 24.29244995 56.66451168 C23.08256066 60.28895134 21.87211157 63.91320206 20.66040039 67.53703308 C19.49200088 71.03140059 18.3250493 74.52624849 17.15911865 78.02144051 C16.71307378 79.35772128 16.26649914 80.69382534 15.81939697 82.02975273 C15.19535258 83.89467267 14.57333205 85.76026948 13.95141602 87.62590027 C13.59611816 88.68957321 13.24082031 89.75324615 12.87475586 90.84915161 C12.06517026 92.98689464 12.06517026 92.98689464 12.11547852 94.24723816 C25.97547852 94.24723816 39.83547852 94.24723816 54.11547852 94.24723816 C50.08809326 82.1645107 50.08809326 82.1645107 46.05563354 70.08349609 C43.88377216 63.57881263 41.72521796 57.07060224 39.60766602 50.54801941 C39.24479492 49.43684753 38.88192383 48.32567566 38.50805664 47.18083191 C37.84178053 45.13724414 37.18139152 43.09172534 36.52758789 41.04411316 C36.08769531 39.7002655 36.08769531 39.7002655 35.63891602 38.32926941 C35.26645752 37.1726178 35.26645752 37.1726178 34.88647461 35.99259949 C34.24932776 34.04855837 34.24932776 34.04855837 32.11547852 33.24723816 Z " fill="#221E1F" transform="translate(1249.884521484375,200.7527618408203)"/>
<path d="M0 0 C1.25908676 0.00222061 2.51817352 0.00444122 3.81541443 0.00672913 C4.50806396 0.0065831 5.2007135 0.00643707 5.91435242 0.00628662 C8.21400537 0.00698577 10.51357828 0.01477823 12.81321716 0.02259827 C14.40362504 0.02446244 15.99403349 0.02588635 17.58444214 0.02688599 C21.77827021 0.03071123 25.97206386 0.04054156 30.1658783 0.05158997 C34.44220006 0.06180395 38.71852736 0.06638358 42.99485779 0.07142639 C51.39135799 0.08216383 59.78783017 0.09924032 68.18431091 0.12025452 C71.82699562 6.93909639 74.42961224 13.96995739 77.00852966 21.24916077 C77.47166408 22.54467375 77.93526828 23.84001887 78.39930725 25.13520813 C79.38409196 27.88667198 80.36583644 30.63919311 81.34510803 33.3926239 C82.88492375 37.72188859 84.43176092 42.0486224 85.97996521 46.37489319 C87.54872164 50.75942263 89.11719784 55.14404988 90.68334961 59.5295105 C94.91180521 71.36937195 99.16638586 83.19964449 103.44377136 95.02192688 C104.48539124 97.90118809 105.52554472 100.78097632 106.56565857 103.66078186 C109.48795865 111.74290019 112.42851521 119.81679127 115.44993591 127.86244202 C115.69507431 128.5166362 115.94021271 129.17083038 116.19277954 129.84484863 C117.28447258 132.75586651 118.38327793 135.66376354 119.49607849 138.56678772 C119.85854675 139.52673645 120.22101501 140.48668518 120.59446716 141.47572327 C120.90521179 142.28678528 121.21595642 143.09784729 121.53611755 143.93348694 C122.18431091 146.12025452 122.18431091 146.12025452 122.18431091 150.12025452 C106.34431091 150.12025452 90.50431091 150.12025452 74.18431091 150.12025452 C70.18431091 142.12025452 70.18431091 142.12025452 64.18431091 125.12025452 C43.72431091 124.79025452 23.26431091 124.46025452 2.18431091 124.12025452 C1.19431091 127.75025452 0.20431091 131.38025452 -0.81568909 135.12025452 C-1.6569717 137.67327978 -2.52701395 140.21723312 -3.44068909 142.74525452 C-3.86607971 143.93377014 -4.29147034 145.12228577 -4.72975159 146.34681702 C-5.81568909 149.12025452 -5.81568909 149.12025452 -6.81568909 150.12025452 C-8.35051879 150.21344901 -9.88960991 150.23771252 -11.42726135 150.23377991 C-12.40820267 150.23370438 -13.38914398 150.23362885 -14.39981079 150.23355103 C-15.46646469 150.22838974 -16.53311859 150.22322845 -17.63209534 150.21791077 C-19.26138222 150.21578835 -19.26138222 150.21578835 -20.92358398 150.21362305 C-24.40847984 150.208005 -27.8933125 150.19544944 -31.37818909 150.18275452 C-33.73430795 150.17774184 -36.09042782 150.17317853 -38.44654846 150.16908264 C-44.23628373 150.15802971 -50.0259819 150.14127403 -55.81568909 150.12025452 C-55.13088854 144.3079341 -53.18360564 139.06495521 -51.22975159 133.58509827 C-50.86112 132.53909958 -50.4924884 131.49310089 -50.11268616 130.41540527 C-48.89367448 126.96106938 -47.66734214 123.50938359 -46.44068909 120.05775452 C-45.58346249 117.63484384 -44.72653336 115.2118279 -43.86988831 112.78871155 C-35.64600793 89.55136829 -27.3335451 66.34551057 -18.98561096 43.15248108 C-17.23322829 38.28316825 -15.48551471 33.41219871 -13.73991394 28.54045105 C-12.50913283 25.1067106 -11.27601653 21.67381254 -10.04219055 18.24116516 C-9.47995967 16.67569611 -8.9186217 15.10990605 -8.35823059 13.54377747 C-7.6044989 11.43810246 -6.84731239 9.33370402 -6.08912659 7.22962952 C-5.67066467 6.06399475 -5.25220276 4.89835999 -4.82106018 3.69740295 C-3.43591281 0.14674349 -3.43591281 0.14674349 0 0 Z M33.18431091 32.12025452 C30.57311251 39.90756602 27.96513133 47.69594422 25.36128235 55.48571587 C24.15218827 59.10254854 22.94197767 62.71899965 21.72923279 66.33460999 C20.55952023 69.82206126 19.39271796 73.31047358 18.22795105 76.79957962 C17.78243629 78.13242059 17.33586328 79.46490829 16.88822937 80.79703903 C16.26279198 82.65889252 15.64142019 84.52211026 15.02024841 86.38539124 C14.66495056 87.44684357 14.30965271 88.5082959 13.94358826 89.60191345 C13.08808948 92.00101256 13.08808948 92.00101256 13.18431091 94.12025452 C26.71431091 94.12025452 40.24431091 94.12025452 54.18431091 94.12025452 C53.53126497 90.8550248 52.90555345 88.03696028 51.86497498 84.93519592 C51.60089844 84.14311737 51.3368219 83.35103882 51.06474304 82.53495789 C50.63666351 81.26620316 50.63666351 81.26620316 50.19993591 79.97181702 C49.9024646 79.08223297 49.60499329 78.19264893 49.29850769 77.27610779 C48.34659704 74.43153566 47.39054179 71.58837691 46.43431091 68.74525452 C45.8064282 66.87164992 45.17882137 64.99795285 44.55149841 63.12416077 C43.33353408 59.48728379 42.11407561 55.85091375 40.89329529 52.21498108 C38.64627473 45.52029853 36.41391752 38.82075447 34.18431091 32.12025452 C33.85431091 32.12025452 33.52431091 32.12025452 33.18431091 32.12025452 Z " fill="#221E1F" transform="translate(1750.815689086914,200.87974548339844)"/>
<path d="M0 0 C14.210625 -0.04125 28.42125 -0.0825 43.0625 -0.125 C47.49953369 -0.14320801 51.93656738 -0.16141602 56.50805664 -0.18017578 C121.59679715 -0.33898156 121.59679715 -0.33898156 137 14 C147.95569317 26.18239241 149.18868634 40.83436097 149.25 56.5 C149.2809375 58.42972656 149.2809375 58.42972656 149.3125 60.3984375 C149.36551385 73.5723781 148.01078881 87.83754157 139.09765625 98.21484375 C124.98293708 111.92118045 104.39095438 112.19020304 85.890625 112.09765625 C84.79780212 112.0962413 83.70497925 112.09482635 82.57904053 112.09336853 C79.13599751 112.08783294 75.6930229 112.07529306 72.25 112.0625 C69.89583428 112.05747666 67.54166753 112.05291522 65.1875 112.04882812 C59.45828667 112.03874148 53.72921864 112.01915415 48 112 C48 124.54 48 137.08 48 150 C32.16 150 16.32 150 0 150 C0 100.5 0 51 0 0 Z M48 36 C48 49.2 48 62.4 48 76 C57.6834375 76.061875 57.6834375 76.061875 67.5625 76.125 C70.59932983 76.15231201 70.59932983 76.15231201 73.69750977 76.18017578 C75.32047257 76.18602259 76.94343833 76.1911177 78.56640625 76.1953125 C79.39426636 76.20554443 80.22212646 76.21577637 81.07507324 76.22631836 C86.64482701 76.22797775 92.17865467 76.02876614 96.86328125 72.66015625 C101.65046461 65.66856544 100.70621003 54.0691458 99.25 46.125 C98.28529546 42.37851046 97.3373953 40.1956548 94 38 C88.16433707 36.23067667 82.97855702 35.7249869 76.90625 35.8046875 C76.16729492 35.80670166 75.42833984 35.80871582 74.66699219 35.81079102 C71.944597 35.82114126 69.2222913 35.84906249 66.5 35.875 C60.395 35.91625 54.29 35.9575 48 36 Z " fill="#221E1F" transform="translate(845,201)"/>
<path d="M0 0 C1.54722952 0.00138269 1.54722952 0.00138269 3.12571621 0.00279331 C4.30507244 0.00141865 5.48442867 0.00004398 6.69952297 -0.00137234 C8.65778515 0.00402058 8.65778515 0.00402058 10.65560818 0.00952244 C12.03504846 0.00980431 13.4144889 0.00964658 14.7939291 0.00907993 C18.54996147 0.00879195 22.30596218 0.01468878 26.06198716 0.02165389 C29.98312073 0.02788732 33.90425496 0.02849122 37.82539272 0.0296793 C45.25563639 0.03279265 52.68586542 0.04100608 60.11610264 0.05102879 C68.57303667 0.06218982 77.02997138 0.06770035 85.48691094 0.07272422 C102.88812405 0.08318869 120.28931708 0.10153422 137.69052029 0.12304783 C137.69052029 12.00304783 137.69052029 23.88304783 137.69052029 36.12304783 C121.85052029 36.12304783 106.01052029 36.12304783 89.69052029 36.12304783 C89.69052029 73.74304783 89.69052029 111.36304783 89.69052029 150.12304783 C73.85052029 150.12304783 58.01052029 150.12304783 41.69052029 150.12304783 C41.69052029 112.50304783 41.69052029 74.88304783 41.69052029 36.12304783 C26.84052029 36.12304783 11.99052029 36.12304783 -3.30947971 36.12304783 C-3.33010471 30.36867283 -3.35072971 24.61429783 -3.37197971 18.68554783 C-3.38108372 16.86740574 -3.39018772 15.04926365 -3.3995676 13.17602634 C-3.40248683 11.74300301 -3.40503537 10.30997885 -3.40713596 8.87695408 C-3.41225193 8.12635715 -3.4173679 7.37576023 -3.42263889 6.60241795 C-3.42294963 4.77557182 -3.37179085 2.948831 -3.30947971 1.12304783 C-2.30947971 0.12304783 -2.30947971 0.12304783 0 0 Z " fill="#221E1F" transform="translate(1361.30947971344,200.87695217132568)"/>
<path d="M0 0 C46.2 0 92.4 0 140 0 C140 11.88 140 23.76 140 36 C124.49 36 108.98 36 93 36 C93 73.62 93 111.24 93 150 C77.16 150 61.32 150 45 150 C45 112.38 45 74.76 45 36 C30.15 36 15.3 36 0 36 C0 24.12 0 12.24 0 0 Z " fill="#221E1F" transform="translate(1860,201)"/>
<path d="M0 0 C7.26 0 14.52 0 22 0 C26.21112362 4.86388125 27.76025374 7.32910553 30 13 C31.20663827 15.19792109 32.44354854 17.37950897 33.7109375 19.54296875 C34.93538035 21.75610646 36.15667586 23.97098807 37.375 26.1875 C38.02899387 27.37207489 38.68329515 28.55648011 39.33789062 29.74072266 C40.63121594 32.08113988 41.92297561 34.422397 43.21386719 36.76416016 C45.9905473 41.79452077 48.78945868 46.8124805 51.59130859 51.82885742 C53.98047406 56.12135851 56.31912924 60.43976747 58.64648438 64.76611328 C59.13142365 65.6673568 59.13142365 65.6673568 59.62615967 66.58680725 C60.4176211 68.05777396 61.20883561 69.52887351 62 71 C61.99777939 70.12525528 61.99555878 69.25051056 61.99327087 68.34925842 C61.97327022 60.12324654 61.95802702 51.89724277 61.94818783 43.6712122 C61.94295944 39.44168629 61.9358626 35.2121804 61.92456055 30.98266602 C61.91373009 26.90431457 61.90772283 22.82598243 61.90512276 18.74761772 C61.90326879 17.18822361 61.89964873 15.6288306 61.89426994 14.06944466 C61.88705738 11.89270838 61.88600915 9.71605286 61.88647461 7.53930664 C61.884254 6.29798477 61.88203339 5.0566629 61.87974548 3.77772522 C62 1 62 1 63 0 C67.62 0 72.24 0 77 0 C77 28.71 77 57.42 77 87 C69.41 87 61.82 87 54 87 C47.2553495 76.88302425 47.2553495 76.88302425 44.5546875 71.953125 C43.66027954 70.3299939 43.66027954 70.3299939 42.74780273 68.67407227 C41.82076538 66.97915649 41.82076538 66.97915649 40.875 65.25 C39.55301402 62.84642287 38.22798875 60.44452941 36.90234375 58.04296875 C36.57313431 57.44592636 36.24392487 56.84888397 35.90473938 56.23374939 C32.36414107 49.8251466 28.71844467 43.47744779 25.03271484 37.15136719 C21.39989641 30.86394853 18.26743305 24.53486611 15 18 C14.67 40.77 14.34 63.54 14 87 C9.38 87 4.76 87 0 87 C0 58.29 0 29.58 0 0 Z " fill="#231F20" transform="translate(1923,402)"/>
<path d="M0 0 C56.48571429 0 56.48571429 0 63 6 C68.81864847 11.98027759 69.34602242 18.99268682 69.3125 26.9375 C69.32861328 27.69740234 69.34472656 28.45730469 69.36132812 29.24023438 C69.36607541 34.79930852 68.31796185 38.93359768 66 44 C63.72728611 46.16184979 61.78484629 47.60757686 59 49 C59.48210937 49.37511719 59.96421875 49.75023437 60.4609375 50.13671875 C61.09257813 50.64847656 61.72421875 51.16023438 62.375 51.6875 C63.00148438 52.18636719 63.62796875 52.68523437 64.2734375 53.19921875 C67.98011242 57.06523038 68.2443202 61.22421897 68.1953125 66.39453125 C68.18886719 67.59658203 68.18242188 68.79863281 68.17578125 70.03710938 C68.15064453 71.90592773 68.15064453 71.90592773 68.125 73.8125 C68.11597656 75.07771484 68.10695313 76.34292969 68.09765625 77.64648438 C68.07412478 80.76440405 68.03825489 83.88222622 68 87 C63.05 87 58.1 87 53 87 C52.98582031 85.25332031 52.97164062 83.50664062 52.95703125 81.70703125 C52.91012914 79.40882779 52.86188177 77.11065151 52.8125 74.8125 C52.80669922 73.66201172 52.80089844 72.51152344 52.79492188 71.32617188 C52.76591797 70.21435547 52.73691406 69.10253906 52.70703125 67.95703125 C52.6913208 66.93585205 52.67561035 65.91467285 52.65942383 64.86254883 C51.7425906 60.88258968 50.25974713 59.42140201 47 57 C43.43680623 56.22493229 43.43680623 56.22493229 39.51171875 56.29296875 C38.80852005 56.27784744 38.10532135 56.26272614 37.3808136 56.24714661 C35.14937997 56.20438505 32.91930191 56.19544407 30.6875 56.1875 C29.16858405 56.16434629 27.64970012 56.13897911 26.13085938 56.11132812 C22.41984172 56.04444468 18.71256235 56.02337618 15 56 C15 66.23 15 76.46 15 87 C10.05 87 5.1 87 0 87 C0 58.29 0 29.58 0 0 Z M15 13 C15 22.9 15 32.8 15 43 C19.44847842 43.0921434 23.89361053 43.17167434 28.34228516 43.21972656 C29.85346736 43.23976791 31.36457272 43.26700905 32.87548828 43.30175781 C35.05520643 43.35061109 37.23389431 43.37304224 39.4140625 43.390625 C40.7232666 43.41157227 42.0324707 43.43251953 43.38134766 43.45410156 C47.59581564 42.92523161 49.72796925 41.65540017 53 39 C54.75752146 35.48495709 54.26953401 31.49766748 54.3125 27.625 C54.34150391 26.76132812 54.37050781 25.89765625 54.40039062 25.0078125 C54.49538111 19.89045424 54.49538111 19.89045424 52.16796875 15.4609375 C48.12536483 12.73673233 44.39500073 12.86699421 39.70703125 12.90234375 C39.00100266 12.9037587 38.29497406 12.90517365 37.56755066 12.90663147 C35.31582374 12.91222236 33.06419679 12.92477312 30.8125 12.9375 C29.28450665 12.94251618 27.75651173 12.94707888 26.22851562 12.95117188 C22.48560772 12.9613373 18.74291557 12.98091431 15 13 Z " fill="#231F20" transform="translate(1410,402)"/>
<path d="M0 0 C56.17528736 0 56.17528736 0 64 7 C68.58608676 13.06546958 68.24035177 19.43897981 68.3125 26.75 C68.35600586 28.19632812 68.35600586 28.19632812 68.40039062 29.671875 C68.45595916 35.96394322 67.69208576 40.78857996 64 46 C61.25 48.5 61.25 48.5 59 50 C59.49371094 50.39832031 59.98742188 50.79664063 60.49609375 51.20703125 C61.13675781 51.73683594 61.77742188 52.26664062 62.4375 52.8125 C63.07558594 53.33457031 63.71367188 53.85664063 64.37109375 54.39453125 C66.73826418 56.72764167 66.98622319 58.64675077 67.11352539 61.91088867 C67.10567017 63.64689331 67.10567017 63.64689331 67.09765625 65.41796875 C67.09282227 67.29838867 67.09282227 67.29838867 67.08789062 69.21679688 C67.07532227 71.18229492 67.07532227 71.18229492 67.0625 73.1875 C67.05748317 74.52278481 67.05292059 75.85807141 67.04882812 77.19335938 C67.03702704 80.4622588 67.01909136 83.73113502 67 87 C62.38 87 57.76 87 53 87 C52.95101563 85.39769531 52.90203125 83.79539062 52.8515625 82.14453125 C52.7765156 80.03383726 52.7009686 77.92316101 52.625 75.8125 C52.5940625 74.75740234 52.563125 73.70230469 52.53125 72.61523438 C52.47324219 71.08286133 52.47324219 71.08286133 52.4140625 69.51953125 C52.3826416 68.58214111 52.3512207 67.64475098 52.31884766 66.67895508 C51.96927515 63.74185005 51.40059671 61.60873009 50 59 C46.64143614 56.40169824 42.68936669 56.65531442 38.609375 56.5859375 C37.90476135 56.56657135 37.20014771 56.5472052 36.47418213 56.5272522 C34.23290961 56.46767265 31.99158511 56.42115877 29.75 56.375 C28.22654062 56.33680021 26.70310238 56.29774731 25.1796875 56.2578125 C21.45323761 56.16038897 17.72700139 56.08065265 14 56 C14 66.23 14 76.46 14 87 C9.38 87 4.76 87 0 87 C0 58.29 0 29.58 0 0 Z M14 13 C14 22.9 14 32.8 14 43 C18.44801928 43.06910041 22.89415558 43.12876017 27.34228516 43.16479492 C28.85341727 43.17982543 30.36450618 43.20025564 31.87548828 43.22631836 C34.05512187 43.26295689 36.23417575 43.27978338 38.4140625 43.29296875 C39.7232666 43.3086792 41.0324707 43.32438965 42.38134766 43.34057617 C46.29010641 42.9726961 48.68143934 42.06207552 52 40 C54.32841988 36.14606364 54.26909625 32.43033004 54.25 28 C54.25515625 26.80375 54.2603125 25.6075 54.265625 24.375 C53.91951801 19.97740534 53.13625372 17.13625372 50 14 C46.30470028 12.62484075 42.50645161 12.88687916 38.609375 12.90234375 C37.55245453 12.90446617 37.55245453 12.90446617 36.47418213 12.90663147 C34.23274416 12.91221067 31.99140757 12.92475927 29.75 12.9375 C28.22656395 12.94251769 26.70312632 12.94708013 25.1796875 12.95117188 C21.4530549 12.96132066 17.7266404 12.98089991 14 13 Z " fill="#231F20" transform="translate(1075,402)"/>
<path d="M0 0 C2.06499241 0.00315674 4.12854353 -0.02034777 6.19335938 -0.0456543 C14.91262434 -0.08766522 23.79100129 0.13904668 31.07617188 5.50317383 C40.13060712 15.20435445 40.0303218 27.75071331 39.96191406 40.2890625 C39.95124315 42.61265454 39.96182766 44.9354654 39.97460938 47.2590332 C39.9978024 70.74526006 39.9978024 70.74526006 33.70117188 79.31567383 C23.11973292 89.66196969 9.78955647 88.60586475 -3.98242188 88.46411133 C-14.65625486 88.2370481 -22.86758464 86.74691731 -30.61132812 79.00317383 C-36.78160086 69.17644317 -36.48547589 58.45431262 -36.48413086 47.18164062 C-36.48630485 45.14992915 -36.50447806 43.11877322 -36.5234375 41.0871582 C-36.6331183 16.20966116 -36.6331183 16.20966116 -29.29882812 7.31567383 C-20.85519185 -0.04312695 -10.6528352 -0.03401449 0 0 Z M-17.97460938 15.51489258 C-21.78644494 20.69853918 -21.61891016 26.66246859 -21.63476562 32.80786133 C-21.64142242 33.71263214 -21.64807922 34.61740295 -21.65493774 35.54959106 C-21.66503043 37.45743792 -21.66975582 39.36531984 -21.66943359 41.27319336 C-21.67380402 44.17467053 -21.71015153 47.07462184 -21.74804688 49.97583008 C-21.7539165 51.836502 -21.75788492 53.69718109 -21.75976562 55.55786133 C-21.77413666 56.41644745 -21.78850769 57.27503357 -21.80331421 58.15963745 C-21.76051272 63.86974895 -20.93859945 68.7406702 -17.29882812 73.31567383 C-13.31097831 75.37764094 -9.64475842 75.57152887 -5.20117188 75.58129883 C-4.07001953 75.58387695 -2.93886719 75.58645508 -1.7734375 75.58911133 C-0.60619141 75.58137695 0.56105469 75.57364258 1.76367188 75.56567383 C2.93478516 75.5734082 4.10589844 75.58114258 5.3125 75.58911133 C6.44236328 75.5865332 7.57222656 75.58395508 8.73632812 75.58129883 C9.76121338 75.57904297 10.78609863 75.57678711 11.84204102 75.57446289 C16.26341722 75.17427001 18.89117707 74.17066835 21.95117188 70.94067383 C24.32950364 67.37317618 24.82091922 64.44186937 24.86230469 60.20898438 C24.87191223 59.41102951 24.88151978 58.61307465 24.89141846 57.79093933 C24.89779327 56.50960869 24.89779327 56.50960869 24.90429688 55.20239258 C24.91284698 53.87072807 24.91284698 53.87072807 24.92156982 52.51216125 C24.93100487 50.63523546 24.93754786 48.7582932 24.94140625 46.88134766 C24.95110164 44.0238727 24.98213483 41.16712043 25.01367188 38.30981445 C25.0202036 36.48234475 25.0254534 34.65486992 25.02929688 32.82739258 C25.04164368 31.97924484 25.05399048 31.13109711 25.06671143 30.25724792 C25.04411924 24.17907927 24.19721635 19.19572514 20.07617188 14.44067383 C11.21839646 10.24488548 -9.76772434 9.64190026 -17.97460938 15.51489258 Z " fill="#221F20" transform="translate(1329.298828125,401.684326171875)"/>
<path d="M0 0 C1.44280848 -0.01147138 2.88557616 -0.03184609 4.328125 -0.06152344 C13.78986767 -0.25570504 23.52871642 -0.32895969 31.40698242 5.71606445 C40.64812827 15.28303362 40.13170653 28.19387729 39.96679688 40.57495117 C39.93016691 43.42085551 39.92577941 46.26545594 39.92626953 49.11157227 C39.91643953 50.94621877 39.90478304 52.7808566 39.89111328 54.61547852 C39.88888763 55.45321808 39.88666199 56.29095764 39.8843689 57.15408325 C39.73221925 66.74935807 38.13792045 74.99403719 31.55517578 82.29516602 C19.72198501 91.46135756 -1.23589816 89.42623117 -15.19482422 87.67016602 C-21.44133776 86.39409254 -26.77557647 83.6108128 -30.81591797 78.59204102 C-35.45976732 71.03940691 -35.85209428 63.15176061 -36.13232422 54.54516602 C-36.17067383 53.44422607 -36.20902344 52.34328613 -36.24853516 51.20898438 C-37.22413035 17.86729428 -37.22413035 17.86729428 -29.19482422 7.85766602 C-21.2638749 -0.44138644 -10.75171066 0.0593415 0 0 Z M-17.88232422 15.92016602 C-21.54963305 21.49447544 -21.75382988 28.15649274 -21.74560547 34.63500977 C-21.74989059 35.40140274 -21.75417572 36.16779572 -21.7585907 36.95741272 C-21.76429355 38.56665058 -21.7648644 40.1759142 -21.76049805 41.78515625 C-21.7573365 44.22319212 -21.78085236 46.6600138 -21.80615234 49.09790039 C-22.25343076 62.14015349 -22.25343076 62.14015349 -16.50732422 73.29516602 C-10.7090427 76.10645402 -4.43451307 75.51633954 1.86767578 75.54516602 C2.98335937 75.56579102 4.09904297 75.58641602 5.24853516 75.60766602 C11.44180543 75.63703541 16.15856672 75.46744659 21.55517578 72.29516602 C26.70828481 64.56550247 25.74145111 55.15746079 25.74047852 46.23779297 C25.74265932 43.9995607 25.76083243 41.7618266 25.77978516 39.52368164 C26.36321509 27.52189657 26.36321509 27.52189657 22.34619141 16.69238281 C15.67303138 10.38615844 4.13544921 11.96587847 -4.48046875 12.2019043 C-9.43356773 12.43706261 -13.68197842 13.11993548 -17.88232422 15.92016602 Z " fill="#221E1F" transform="translate(1841.44482421875,401.704833984375)"/>
<path d="M0 0 C1.44280848 -0.01147138 2.88557616 -0.03184609 4.328125 -0.06152344 C13.96251622 -0.25924827 23.96234719 -0.38374891 31.75292969 6.13378906 C38.15547972 12.47996335 39.88076839 20.9925734 39.94636536 29.77896118 C39.93715561 30.6428244 39.92794586 31.50668762 39.91845703 32.39672852 C39.91920479 33.77868912 39.91920479 33.77868912 39.91996765 35.18856812 C39.91764521 37.11963071 39.90802623 39.0506974 39.89135742 40.98168945 C39.86767879 43.9197928 39.87082169 46.85699078 39.87744141 49.79516602 C39.87186584 51.6831922 39.86475672 53.57121461 39.85595703 55.45922852 C39.85686844 56.3271402 39.85777985 57.19505188 39.85871887 58.08926392 C39.75817907 66.82278956 38.14489266 74.36576492 32.55517578 81.29516602 C20.78151503 90.81429598 2.32862309 89.2366509 -11.97607422 87.98657227 C-19.40751864 86.80714359 -26.81030619 84.46934548 -31.42602539 78.12670898 C-36.74022304 68.57312386 -35.90564135 57.21570993 -35.8359375 46.64306641 C-35.81984051 43.73560807 -35.83585434 40.82953555 -35.85498047 37.92211914 C-35.8529981 36.045163 -35.84915455 34.1682077 -35.84326172 32.29125977 C-35.84933441 31.43680771 -35.8554071 30.58235565 -35.86166382 29.70201111 C-35.75636139 20.51933662 -33.76652179 12.64155208 -27.34326172 5.92016602 C-19.68316955 -0.63662069 -9.50233351 0.05244586 0 0 Z M-17.88232422 15.92016602 C-21.54963305 21.49447544 -21.75382988 28.15649274 -21.74560547 34.63500977 C-21.74989059 35.40140274 -21.75417572 36.16779572 -21.7585907 36.95741272 C-21.76429355 38.56665058 -21.7648644 40.1759142 -21.76049805 41.78515625 C-21.7573365 44.22319212 -21.78085236 46.6600138 -21.80615234 49.09790039 C-22.25343076 62.14015349 -22.25343076 62.14015349 -16.50732422 73.29516602 C-10.7090427 76.10645402 -4.43451307 75.51633954 1.86767578 75.54516602 C2.98335937 75.56579102 4.09904297 75.58641602 5.24853516 75.60766602 C11.44180543 75.63703541 16.15856672 75.46744659 21.55517578 72.29516602 C25.57886716 66.25962895 25.71446545 59.64847956 25.75830078 52.58813477 C25.76685089 51.5008886 25.76685089 51.5008886 25.77557373 50.39167786 C25.78497468 48.86464882 25.79153807 47.33759994 25.79541016 45.81054688 C25.80510427 43.49971352 25.83616838 41.18977521 25.86767578 38.87915039 C26.16421138 25.93361076 26.16421138 25.93361076 20.30517578 14.79516602 C11.27432313 9.86924639 -9.27951204 10.1849579 -17.88232422 15.92016602 Z " fill="#231F20" transform="translate(993.44482421875,401.704833984375)"/>
<path d="M0 0 C0.78552246 0.01047363 1.57104492 0.02094727 2.38037109 0.03173828 C3.23115234 0.03818359 4.08193359 0.04462891 4.95849609 0.05126953 C6.29267578 0.07640625 6.29267578 0.07640625 7.65380859 0.10205078 C8.99958984 0.11558594 8.99958984 0.11558594 10.37255859 0.12939453 C12.59157445 0.15300108 14.81005937 0.18592768 17.02880859 0.22705078 C22.26190051 11.88554432 26.20228791 24.02589204 30.34130859 36.10205078 C31.79326895 40.32946556 33.24812686 44.55587285 34.70458984 48.78173828 C35.23706833 50.33112091 35.23706833 50.33112091 35.78030396 51.9118042 C37.58745008 57.14760884 39.43400151 62.3646672 41.35449219 67.56005859 C41.72680466 68.56803497 42.09911713 69.57601135 42.48271179 70.61453247 C43.19119018 72.52244998 43.90541878 74.42824541 44.626297 76.33151245 C44.9424144 77.18149811 45.2585318 78.03148376 45.58422852 78.90722656 C45.86409103 79.64804474 46.14395355 80.38886292 46.43229675 81.15213013 C47.02880859 83.22705078 47.02880859 83.22705078 47.02880859 87.22705078 C42.40880859 87.22705078 37.78880859 87.22705078 33.02880859 87.22705078 C28.15380859 75.85205078 28.15380859 75.85205078 27.02880859 70.22705078 C14.15880859 70.22705078 1.28880859 70.22705078 -11.97119141 70.22705078 C-12.96119141 73.85705078 -13.95119141 77.48705078 -14.97119141 81.22705078 C-15.96119141 83.20705078 -16.95119141 85.18705078 -17.97119141 87.22705078 C-22.92119141 87.22705078 -27.87119141 87.22705078 -32.97119141 87.22705078 C-30.84615114 79.97177497 -28.50893455 72.8226304 -26.02197266 65.68408203 C-25.64566208 64.59858566 -25.2693515 63.51308929 -24.88163757 62.3946991 C-23.68426903 58.94230373 -22.48402899 55.49091483 -21.28369141 52.03955078 C-20.49769507 49.77464242 -19.71188637 47.50966893 -18.92626953 45.24462891 C-17.75945896 41.88072626 -16.59165075 38.51718928 -15.42044067 35.15481567 C-13.48803182 29.60708008 -11.5684501 24.05557233 -9.67578125 18.49414062 C-9.31147507 17.42967209 -8.94716888 16.36520355 -8.57182312 15.26847839 C-7.88236682 13.2527674 -7.19742 11.2355066 -6.51765442 9.21650696 C-6.2112352 8.32368515 -5.90481598 7.43086334 -5.58911133 6.51098633 C-5.32370041 5.7285405 -5.05828949 4.94609467 -4.78483582 4.13993835 C-3.69873983 1.58651392 -2.83948479 0.32706476 0 0 Z M7.02880859 14.22705078 C4.88823538 20.31277155 2.75248171 26.40016771 0.62011719 32.48876953 C-0.10630417 34.56110177 -0.83384 36.63304369 -1.5625 38.70458984 C-2.60789506 41.67720982 -3.64931247 44.65119702 -4.68994141 47.62548828 C-5.0180481 48.55573822 -5.34615479 49.48598816 -5.6842041 50.44442749 C-5.98451538 51.30516876 -6.28482666 52.16591003 -6.59423828 53.05273438 C-6.86071167 53.81218353 -7.12718506 54.57163269 -7.4017334 55.35409546 C-8.06815615 57.21970055 -8.06815615 57.21970055 -7.97119141 59.22705078 C2.25880859 59.22705078 12.48880859 59.22705078 23.02880859 59.22705078 C21.21650845 52.58195027 19.42888212 46.1620253 17.11083984 39.71533203 C16.84873215 38.97623093 16.58662445 38.23712982 16.3165741 37.47563171 C15.49522859 35.16225265 14.6683925 32.85088358 13.84130859 30.53955078 C13.27648714 28.95179114 12.71203127 27.36390139 12.14794922 25.77587891 C10.77910829 21.92475815 9.40534671 18.07542663 8.02880859 14.22705078 C7.69880859 14.22705078 7.36880859 14.22705078 7.02880859 14.22705078 Z " fill="#231F20" transform="translate(1552.97119140625,401.77294921875)"/>
<path d="M0 0 C2.18585497 -0.00969015 4.37076228 -0.04074324 6.55639648 -0.07226562 C22.17544326 -0.19355649 22.17544326 -0.19355649 28.41381836 4.88867188 C29.0828418 5.74332031 29.0828418 5.74332031 29.76538086 6.61523438 C30.45760742 7.46214844 30.45760742 7.46214844 31.16381836 8.32617188 C35.33321999 14.83256296 34.96779653 21.70414723 35.39038086 29.24023438 C30.44038086 29.24023438 25.49038086 29.24023438 20.39038086 29.24023438 C19.96720378 25.91992188 19.54402669 22.59960938 19.12084961 19.27929688 C18.68338752 15.94491353 18.68338752 15.94491353 15.39038086 14.24023438 C5.70536358 12.09559726 -6.12700542 12.10174098 -15.60961914 15.24023438 C-18.06518081 17.1991656 -18.58848197 18.17682287 -19.60961914 21.24023438 C-19.7192594 24.21821134 -19.77368845 27.17201565 -19.77758789 30.15039062 C-19.78091629 31.03246689 -19.78424469 31.91454315 -19.78767395 32.823349 C-19.79273905 34.69366943 -19.7950824 36.56399889 -19.79492188 38.43432617 C-19.79709221 41.26757187 -19.81520728 44.10041778 -19.83422852 46.93359375 C-19.83716592 48.75585805 -19.83914839 50.5781242 -19.84008789 52.40039062 C-19.84727341 53.23619156 -19.85445892 54.07199249 -19.86186218 54.93312073 C-19.83921011 60.8998832 -18.96348788 66.43386418 -17.60961914 72.24023438 C-11.41097543 74.4254304 -5.64648772 74.57365905 0.89038086 74.55273438 C1.89713867 74.56884766 2.90389648 74.58496094 3.94116211 74.6015625 C9.82973937 74.60542133 14.26059728 74.24904975 19.39038086 71.24023438 C20.44453266 68.07777896 20.70313758 65.3707522 20.95288086 62.05273438 C21.09725586 60.13460937 21.24163086 58.21648437 21.39038086 56.24023438 C26.01038086 56.24023438 30.63038086 56.24023438 35.39038086 56.24023438 C36.14500349 74.68656534 36.14500349 74.68656534 31.39038086 81.24023438 C23.42893682 89.20167841 11.5204985 88.4208593 1.01538086 88.42773438 C-0.4502832 88.44610352 -0.4502832 88.44610352 -1.94555664 88.46484375 C-12.90218835 88.48669873 -22.0340575 87.30892677 -30.35961914 79.74023438 C-37.46031419 70.21416921 -36.07320211 56.27168048 -36.00073242 45.03051758 C-35.98459639 42.04852958 -36.00067447 39.06788535 -36.01977539 36.0859375 C-36.01779368 34.16471059 -36.0139515 32.24348451 -36.00805664 30.32226562 C-36.01412933 29.44391556 -36.02020203 28.56556549 -36.02645874 27.66059875 C-35.9508993 20.93681468 -34.89444292 14.57698197 -31.03149414 8.93554688 C-21.80305413 0.26771304 -12.18945502 0.03267585 0 0 Z " fill="#231F20" transform="translate(880.609619140625,401.759765625)"/>
<path d="M0 0 C54.55882353 0 54.55882353 0 62.3125 7.125 C68.14572991 17.0630954 68.30718548 28.94408946 66.49609375 40.10546875 C64.76243543 46.65374388 62.00598609 50.97270705 56.3125 54.8125 C47.36451216 58.02026922 37.24261098 57.12243319 27.875 57.0625 C23.29625 57.041875 18.7175 57.02125 14 57 C14 66.9 14 76.8 14 87 C9.38 87 4.76 87 0 87 C0 58.29 0 29.58 0 0 Z M14 13 C14 23.23 14 33.46 14 44 C18.640625 44.061875 23.28125 44.12375 28.0625 44.1875 C29.51277588 44.21481201 30.96305176 44.24212402 32.45727539 44.27026367 C41.67290878 44.41039905 41.67290878 44.41039905 50 41 C52.76505729 36.85241407 52.33078822 33.49698182 52.3125 28.625 C52.32861328 27.77421875 52.34472656 26.9234375 52.36132812 26.046875 C52.36505571 21.26065879 52.24085812 17.8100955 49 14 C45.4937557 12.8312519 42.3522134 12.87485733 38.70703125 12.90234375 C38.00100266 12.9037587 37.29497406 12.90517365 36.56755066 12.90663147 C34.31582374 12.91222236 32.06419679 12.92477312 29.8125 12.9375 C28.28450665 12.94251618 26.75651173 12.94707888 25.22851562 12.95117188 C21.48560772 12.9613373 17.74291557 12.98091431 14 13 Z " fill="#231F20" transform="translate(1185,402)"/>
<path d="M0 0 C8.58806111 -0.02255359 17.17609936 -0.04091657 25.76418209 -0.05181217 C29.751572 -0.05704036 33.73894067 -0.06413684 37.72631836 -0.07543945 C41.57125114 -0.08627061 45.41616345 -0.09227732 49.26111031 -0.09487724 C50.73118983 -0.09673108 52.20126818 -0.10035091 53.67133904 -0.10573006 C55.72354467 -0.11294355 57.77566467 -0.11399081 59.82788086 -0.11352539 C61.58327431 -0.11685631 61.58327431 -0.11685631 63.37413025 -0.12025452 C66 0 66 0 67 1 C67 5.29 67 9.58 67 14 C58.09 14 49.18 14 40 14 C40 38.09 40 62.18 40 87 C35.38 87 30.76 87 26 87 C26 62.91 26 38.82 26 14 C17.42 14 8.84 14 0 14 C0 9.38 0 4.76 0 0 Z " fill="#231F20" transform="translate(1642,402)"/>
<path d="M0 0 C6.39375 -0.061875 12.7875 -0.12375 19.375 -0.1875 C22.37086182 -0.22846802 22.37086182 -0.22846802 25.42724609 -0.27026367 C45.48198806 -0.4311362 45.48198806 -0.4311362 53.4375 5.125 C59.47563887 11.89949727 59.47346876 20.2448968 59.375 28.9375 C59.38660156 29.95779297 59.39820313 30.97808594 59.41015625 32.02929688 C59.38022374 39.8466719 58.54416454 47.89308075 53.875 54.4375 C47.59528132 60.03464056 40.03187669 60.43735762 31.93359375 60.29296875 C30.70872253 60.28843689 30.70872253 60.28843689 29.45910645 60.28381348 C26.45177298 60.2682923 23.44462179 60.22641043 20.4375 60.1875 C13.693125 60.125625 6.94875 60.06375 0 60 C0 40.2 0 20.4 0 0 Z M11 9 C11 22.86 11 36.72 11 51 C15.66125 51.061875 20.3225 51.12375 25.125 51.1875 C26.58437988 51.21481201 28.04375977 51.24212402 29.54736328 51.27026367 C31.29122314 51.28150269 31.29122314 51.28150269 33.0703125 51.29296875 C34.25383301 51.3086792 35.43735352 51.32438965 36.65673828 51.34057617 C40.40131041 50.95911874 42.78915438 49.92857888 46 48 C51.18420641 41.08772479 49.56320016 27.95360145 48.65625 19.9765625 C47.73001443 14.23598559 47.73001443 14.23598559 44 10 C40.44092659 8.78526043 36.99978417 8.88596586 33.265625 8.90234375 C32.09805664 8.90484131 30.93048828 8.90733887 29.72753906 8.90991211 C28.24995117 8.91901611 26.77236328 8.92812012 25.25 8.9375 C18.19625 8.9684375 18.19625 8.9684375 11 9 Z " fill="#231F20" transform="translate(1405,541)"/>
<path d="M0 0 C6.414375 -0.061875 12.82875 -0.12375 19.4375 -0.1875 C21.44384521 -0.21481201 23.45019043 -0.24212402 25.51733398 -0.27026367 C27.13524781 -0.27903821 28.75316835 -0.28667985 30.37109375 -0.29296875 C31.59753601 -0.3159906 31.59753601 -0.3159906 32.84875488 -0.33947754 C39.62796736 -0.34250803 46.36780282 0.50278729 51.4375 5.3125 C55.3795051 12.09274877 55.79340749 18.27708794 54.1875 25.8125 C53.10195413 28.72633365 52.4175156 30.13191976 50 32 C50.28875 32.556875 50.5775 33.11375 50.875 33.6875 C51.24625 34.450625 51.6175 35.21375 52 36 C52.350625 36.6703125 52.70125 37.340625 53.0625 38.03125 C54.41176422 42.30392004 54.21126972 46.36297349 54.125 50.8125 C54.11597656 51.69615234 54.10695313 52.57980469 54.09765625 53.49023438 C54.07419637 55.66027359 54.03832865 57.83017247 54 60 C50.37 60 46.74 60 43 60 C42.95101562 58.73542969 42.90203125 57.47085938 42.8515625 56.16796875 C42.7765262 54.50779053 42.70097873 52.84763536 42.625 51.1875 C42.5940625 50.35412109 42.563125 49.52074219 42.53125 48.66210938 C42.47324219 47.45844727 42.47324219 47.45844727 42.4140625 46.23046875 C42.3826416 45.49207764 42.3512207 44.75368652 42.31884766 43.99291992 C42.09165386 41.68650412 42.09165386 41.68650412 40 39 C36.76248322 37.92082774 34.42248229 37.88574399 31.01953125 37.90234375 C29.27446289 37.90717773 29.27446289 37.90717773 27.49414062 37.91210938 C25.67172852 37.92467773 25.67172852 37.92467773 23.8125 37.9375 C21.97268555 37.94426758 21.97268555 37.94426758 20.09570312 37.95117188 C17.06378135 37.96296924 14.0318846 37.98090486 11 38 C11 45.26 11 52.52 11 60 C7.37 60 3.74 60 0 60 C0 40.2 0 20.4 0 0 Z M10 9 C10.33 15.27 10.66 21.54 11 28 C15.05753083 28.09198433 19.11239665 28.17156595 23.17041016 28.21972656 C24.5497668 28.23980642 25.92903869 28.26707666 27.30810547 28.30175781 C29.29356979 28.35042817 31.27966254 28.37086418 33.265625 28.390625 C34.45961914 28.41157227 35.65361328 28.43251953 36.88378906 28.45410156 C40.61458398 27.91044138 41.76001791 26.9753366 44 24 C44.62916746 21.33041599 44.62916746 21.33041599 44.5 18.5 C44.5103125 17.5615625 44.520625 16.623125 44.53125 15.65625 C43.83622302 12.18111512 42.79220554 11.16086505 40 9 C36.71379869 8.44925166 36.71379869 8.44925166 33.046875 8.609375 C32.38665344 8.61503479 31.72643188 8.62069458 31.04620361 8.62652588 C28.94671737 8.6488377 26.8489663 8.69901686 24.75 8.75 C23.3229414 8.77007206 21.89585592 8.78832161 20.46875 8.8046875 C16.97796781 8.84527799 13.49091519 8.9235566 10 9 Z " fill="#221F20" transform="translate(845,541)"/>
<path d="M0 0 C3.63 0 7.26 0 11 0 C11.33 0.66 11.66 1.32 12 2 C12.67160156 1.67644531 13.34320312 1.35289062 14.03515625 1.01953125 C17.62917167 -0.21635547 20.64053094 -0.30102879 24.4375 -0.3125 C25.71496094 -0.32925781 26.99242187 -0.34601562 28.30859375 -0.36328125 C32.22881307 0.02251811 34.57703328 1.13337498 38 3 C41.07254119 3.23924772 41.07254119 3.23924772 43.6953125 1.53125 C47.50565391 -0.23429827 50.75279926 -0.53707541 54.875 -0.5 C55.58027832 -0.49645508 56.28555664 -0.49291016 57.01220703 -0.48925781 C62.06304438 -0.32817264 65.55005256 0.56102473 69.6171875 3.515625 C73.34152784 7.51350446 73.27006536 11.59192425 73.1953125 16.828125 C73.1924826 17.57713074 73.18965271 18.32613647 73.18673706 19.09783936 C73.1755726 21.48205776 73.15047531 23.86589579 73.125 26.25 C73.11496535 27.86978623 73.10584035 29.48957836 73.09765625 31.109375 C73.07564555 35.07306246 73.04114175 39.03646681 73 43 C69.7 43 66.4 43 63 43 C62.67 32.11 62.34 21.22 62 10 C59.16612485 8.58306243 56.71970627 8.8300987 53.5625 8.8125 C52.40878906 8.79832031 51.25507812 8.78414062 50.06640625 8.76953125 C46.82719832 8.76074912 46.82719832 8.76074912 44 11 C42.87816292 14.36551123 42.79199032 17.09060232 42.68359375 20.63671875 C42.62075195 22.58481445 42.62075195 22.58481445 42.55664062 24.57226562 C42.51683013 25.94400761 42.47711784 27.31575244 42.4375 28.6875 C42.39429165 30.07097645 42.35067661 31.45444027 42.30664062 32.83789062 C42.20041972 36.22515719 42.09837642 39.61249799 42 43 C38.7 43 35.4 43 32 43 C31.98541748 42.07662842 31.97083496 41.15325684 31.95581055 40.2019043 C31.89473692 36.77422796 31.8205839 33.34735338 31.73754883 29.92016602 C31.70430577 28.43720146 31.67627177 26.95411056 31.65356445 25.47094727 C31.62000532 23.33815707 31.56769362 21.20652388 31.51171875 19.07421875 C31.48553467 17.79119873 31.45935059 16.50817871 31.43237305 15.1862793 C31.25990507 12.04624368 31.25990507 12.04624368 29.62573242 10.0871582 C27.27641732 8.51612649 25.42986925 8.53073829 22.625 8.5 C21.68914062 8.4690625 20.75328125 8.438125 19.7890625 8.40625 C15.87948797 9.23854038 14.51326465 10.93525151 12 14 C11.22772188 17.26868785 11.22772188 17.26868785 11.29296875 20.83203125 C11.26396484 22.12431641 11.23496094 23.41660156 11.20507812 24.74804688 C11.1986898 26.10286219 11.19283712 27.45768013 11.1875 28.8125 C11.16434252 30.1868884 11.13897455 31.56124144 11.11132812 32.93554688 C11.05246658 36.29065515 11.01617663 39.64445874 11 43 C7.37 43 3.74 43 0 43 C0 28.81 0 14.62 0 0 Z " fill="#231F20" transform="translate(1769,558)"/>
<path d="M0 0 C15.51 0 31.02 0 47 0 C47 2.97 47 5.94 47 9 C35.12 9 23.24 9 11 9 C11 14.28 11 19.56 11 25 C22.22 25 33.44 25 45 25 C45 27.97 45 30.94 45 34 C34.11 34 23.22 34 12 34 C11.67 39.61 11.34 45.22 11 51 C22.88 51 34.76 51 47 51 C47 53.97 47 56.94 47 60 C31.49 60 15.98 60 0 60 C0 40.2 0 20.4 0 0 Z " fill="#221E1F" transform="translate(1076,541)"/>
<path d="M0 0 C3.3 0 6.6 0 10 0 C10.33 0.66 10.66 1.32 11 2 C11.66128906 1.67644531 12.32257813 1.35289062 13.00390625 1.01953125 C16.684943 -0.23307708 20.09622573 -0.33033321 23.9375 -0.3125 C24.62779297 -0.32861328 25.31808594 -0.34472656 26.02929688 -0.36132812 C31.95216798 -0.36694222 36.00364899 1.05910318 40.25 5.1875 C44.88290072 12.63323331 45.18505061 22.17854699 43.46484375 30.62890625 C41.90078692 35.81678875 39.99659064 39.29219728 35.15625 42.05078125 C27.79348288 45.29199938 19.54103194 43.91144212 12 42 C11.34 41.67 10.68 41.34 10 41 C10 47.27 10 53.54 10 60 C6.7 60 3.4 60 0 60 C0 40.2 0 20.4 0 0 Z M11 12 C8.96296338 17.77160375 9.06401726 25.40175944 11.375 31.0625 C12.67996519 34.07588901 12.67996519 34.07588901 15 35 C17.31006744 35.1230891 19.62418636 35.1755634 21.9375 35.1875 C23.80728516 35.20876953 23.80728516 35.20876953 25.71484375 35.23046875 C29.14276297 35.26240498 29.14276297 35.26240498 32 33 C33.27595098 29.17214707 33.18415169 25.5503343 33.1875 21.5625 C33.20586914 20.4168457 33.20586914 20.4168457 33.22460938 19.24804688 C33.32616391 13.79607328 33.32616391 13.79607328 31 9 C27.69216735 7.89738912 25.04440731 7.76259221 21.5625 7.6875 C20.42941406 7.65011719 19.29632812 7.61273437 18.12890625 7.57421875 C14.3767639 8.08480991 13.28418445 9.05073081 11 12 Z " fill="#231F20" transform="translate(1713,558)"/>
<path d="M0 0 C1.46469727 -0.02416992 1.46469727 -0.02416992 2.95898438 -0.04882812 C8.41271684 -0.05252557 12.37719515 0.2013979 17.0625 3.3125 C22.16306489 8.55091799 22.19023929 13.29376678 22.16015625 20.36328125 C22.1587413 21.02208786 22.15732635 21.68089447 22.15586853 22.35966492 C22.150305 24.44815762 22.13775947 26.53654011 22.125 28.625 C22.11998028 30.04752449 22.1154182 31.47005066 22.11132812 32.89257812 C22.10034757 36.36592077 22.08310835 39.83919961 22.0625 43.3125 C17.0625 43.3125 12.0625 43.3125 7.0625 43.3125 C5.3742872 43.51497609 3.68683521 43.72385077 2 43.9375 C-5.16305911 44.58868719 -12.73430809 44.51400087 -18.5625 39.8125 C-22.46611548 35.70343107 -22.33574052 32.59571681 -22.28515625 27.08203125 C-21.73405937 22.69183255 -20.25916378 21.19127528 -16.9375 18.3125 C-12.23678804 15.72755105 -7.52723418 16.04993943 -2.3125 16.125 C-1.02472656 16.1259668 -1.02472656 16.1259668 0.2890625 16.12695312 C3.86328129 16.15208435 6.642977 16.172659 10.0625 17.3125 C10.0625 15.0025 10.0625 12.6925 10.0625 10.3125 C4.36387203 7.69421147 -0.90918527 8.33733144 -6.9375 9.3125 C-7.9275 9.8075 -7.9275 9.8075 -8.9375 10.3125 C-9.59305119 12.83983235 -9.59305119 12.83983235 -9.9375 15.3125 C-13.2375 15.3125 -16.5375 15.3125 -19.9375 15.3125 C-20.42371272 8.14086241 -20.42371272 8.14086241 -18.25 4.4375 C-12.86508662 -0.51079878 -6.91203215 -0.022722 0 0 Z M-10.9375 25.3125 C-12.10235921 29.78810244 -12.10235921 29.78810244 -10.953125 34.0234375 C-7.82021848 36.02704051 -4.59410259 35.70544097 -1 35.625 C0.07411133 35.62983398 0.07411133 35.62983398 1.16992188 35.63476562 C4.89271738 35.59681312 7.99306681 35.56031723 11.0625 33.3125 C12.16059194 30.01822419 12.17446276 28.64838828 11.0625 25.3125 C3.63926779 22.39009069 -3.52369057 22.94008098 -10.9375 25.3125 Z " fill="#221F1F" transform="translate(1244.9375,557.6875)"/>
<path d="M0 0 C0.97710938 -0.020625 1.95421875 -0.04125 2.9609375 -0.0625 C8.85871727 -0.09429396 13.0561559 0.38851217 18.25 3.25 C22.64032429 7.78666843 22.37176254 12.56583872 22.34765625 18.640625 C22.3462413 19.34523865 22.34482635 20.04985229 22.34336853 20.77581787 C22.33778933 23.01725584 22.32524073 25.25859243 22.3125 27.5 C22.30748231 29.02343605 22.30291987 30.54687368 22.29882812 32.0703125 C22.28782674 35.79690772 22.27057646 39.52344396 22.25 43.25 C20.43757948 43.27687279 18.62504767 43.29633715 16.8125 43.3125 C15.80316406 43.32410156 14.79382813 43.33570313 13.75390625 43.34765625 C11.25 43.25 11.25 43.25 10.25 42.25 C8.61658817 42.5393128 6.99281006 42.88335749 5.375 43.25 C-2.26328741 44.6865132 -9.3955095 44.95791695 -16.3125 41 C-19.41447243 38.77977433 -21.01486981 37.10943349 -21.75 33.25 C-22.22650325 28.00846427 -21.58336099 24.70242441 -18.75 20.25 C-15.14698917 16.98477144 -11.97569167 16.12391249 -7.1875 16.1171875 C-6.30835938 16.11589844 -5.42921875 16.11460937 -4.5234375 16.11328125 C-3.15058594 16.11908203 -3.15058594 16.11908203 -1.75 16.125 C-0.83476563 16.12113281 0.08046875 16.11726562 1.0234375 16.11328125 C1.90257812 16.11457031 2.78171875 16.11585938 3.6875 16.1171875 C4.49058594 16.11831543 5.29367187 16.11944336 6.12109375 16.12060547 C8.25 16.25 8.25 16.25 11.25 17.25 C10.755 13.785 10.755 13.785 10.25 10.25 C5.65767665 8.42144572 2.27641732 8.12485538 -2.625 8.625 C-3.77742187 8.73585938 -4.92984375 8.84671875 -6.1171875 8.9609375 C-6.98601563 9.05632813 -7.85484375 9.15171875 -8.75 9.25 C-9.08 11.23 -9.41 13.21 -9.75 15.25 C-13.05 15.25 -16.35 15.25 -19.75 15.25 C-19.382806 7.04933389 -19.382806 7.04933389 -16.375 3.25 C-11.29466808 -0.62072909 -6.12211312 0.03180319 0 0 Z M-10.75 25.25 C-10.82179964 26.76928038 -10.83392007 28.29167482 -10.8125 29.8125 C-10.80347656 30.63878906 -10.79445313 31.46507812 -10.78515625 32.31640625 C-10.77355469 32.95449219 -10.76195312 33.59257813 -10.75 34.25 C-7.63613918 35.80693041 -4.35255068 35.47567195 -0.9375 35.5 C-0.22529297 35.520625 0.48691406 35.54125 1.22070312 35.5625 C5.77575514 35.59620991 8.58844086 34.9835805 12.25 32.25 C11.92 29.94 11.59 27.63 11.25 25.25 C-0.2127771 22.05618756 -0.2127771 22.05618756 -10.75 25.25 Z " fill="#231F1F" transform="translate(987.75,557.75)"/>
<path d="M0 0 C0.92941406 -0.020625 1.85882812 -0.04125 2.81640625 -0.0625 C8.58670758 -0.09514668 12.68217129 0.41680442 17.75 3.25 C23.54351823 10.26320628 22.75 14.9916969 22.75 24.25 C11.53 24.25 0.31 24.25 -11.25 24.25 C-10.59 27.22 -9.93 30.19 -9.25 33.25 C-6.90147472 34.42426264 -5.51225935 34.36508173 -2.8984375 34.34765625 C-1.62226562 34.34282227 -1.62226562 34.34282227 -0.3203125 34.33789062 C1.01386719 34.32532227 1.01386719 34.32532227 2.375 34.3125 C3.2721875 34.30798828 4.169375 34.30347656 5.09375 34.29882812 C7.31256648 34.28702591 9.53125018 34.27056155 11.75 34.25 C11.75 32.27 11.75 30.29 11.75 28.25 C15.38 28.25 19.01 28.25 22.75 28.25 C22.51100086 36.2564711 22.51100086 36.2564711 19.5 40.1875 C11.45340589 45.73753746 -1.09146775 44.90748866 -10.25 43.25 C-14.87769318 41.84788888 -17.50307521 40.38243436 -20.1875 36.3125 C-23.2706793 27.42568908 -23.72435595 16.98356971 -20.3046875 8.125 C-15.75218634 0.0316646 -8.27087402 0.04513437 0 0 Z M-9.7578125 10.01953125 C-11.62069541 12.35683857 -11.62069541 12.35683857 -11.25 16.25 C-3.66 16.25 3.93 16.25 11.75 16.25 C11.42 13.94 11.09 11.63 10.75 9.25 C7.61941914 7.68470957 4.30920992 7.98308686 0.875 7.9375 C-0.20587891 7.89399414 -0.20587891 7.89399414 -1.30859375 7.84960938 C-4.81102874 7.80768336 -6.86310215 7.97700198 -9.7578125 10.01953125 Z " fill="#231F20" transform="translate(1878.25,557.75)"/>
<path d="M0 0 C1.30227539 -0.02416992 1.30227539 -0.02416992 2.63085938 -0.04882812 C8.94920088 -0.05360389 13.58087253 0.91137761 18.875 4.5625 C23.01304307 10.66066873 22.0625 17.0664909 22.0625 24.3125 C10.8425 24.3125 -0.3775 24.3125 -11.9375 24.3125 C-11.2775 27.2825 -10.6175 30.2525 -9.9375 33.3125 C-7.640963 34.4607685 -6.35436833 34.42811175 -3.8046875 34.41015625 C-2.99902344 34.40693359 -2.19335938 34.40371094 -1.36328125 34.40039062 C-0.52152344 34.39201172 0.32023437 34.38363281 1.1875 34.375 C2.46173828 34.36823242 2.46173828 34.36823242 3.76171875 34.36132812 C5.86200909 34.34952874 7.9622633 34.33159306 10.0625 34.3125 C10.7225 32.3325 11.3825 30.3525 12.0625 28.3125 C15.3625 28.3125 18.6625 28.3125 22.0625 28.3125 C22.35380183 33.26463111 22.37145436 36.46984332 19.0625 40.3125 C10.22774702 45.80967963 -1.46066505 44.77314845 -11.31640625 43.078125 C-15.59007388 41.82978095 -18.28385683 40.33965355 -20.6875 36.5625 C-24.02586522 27.88275044 -24.12580044 17.10097583 -20.9375 8.3125 C-19.04886225 4.97709447 -16.9465174 2.76369921 -13.38671875 1.171875 C-8.8718454 0.04699149 -4.63487416 -0.01712814 0 0 Z M-10.9375 10.3125 C-11.2675 12.2925 -11.5975 14.2725 -11.9375 16.3125 C-4.3475 16.3125 3.2425 16.3125 11.0625 16.3125 C11.0625 14.3325 11.0625 12.3525 11.0625 10.3125 C7.32582113 7.82138075 4.38379024 8.01636523 0.0625 8.0625 C-0.66195313 8.05476562 -1.38640625 8.04703125 -2.1328125 8.0390625 C-5.93138493 8.05307937 -7.70587084 8.15808056 -10.9375 10.3125 Z " fill="#221F20" transform="translate(1496.9375,557.6875)"/>
<path d="M0 0 C1.30324219 -0.0309375 1.30324219 -0.0309375 2.6328125 -0.0625 C8.53399167 -0.09794252 12.90931833 0.67460462 18.25 3.25 C23.77204395 9.28740859 22.25 16.25517427 22.25 24.25 C11.03 24.25 -0.19 24.25 -11.75 24.25 C-11.09 27.55 -10.43 30.85 -9.75 34.25 C-3.15 34.25 3.45 34.25 10.25 34.25 C10.91 32.27 11.57 30.29 12.25 28.25 C15.55 28.25 18.85 28.25 22.25 28.25 C22.73621272 35.42163759 22.73621272 35.42163759 20.5625 39.125 C14.69440963 44.51729926 6.83174428 44.1716762 -0.75 44.25 C-12.73555347 43.54650012 -12.73555347 43.54650012 -17.4375 39.9375 C-22.15518057 34.45479015 -22.0878967 29.31337743 -22.0625 22.375 C-22.07861328 21.50230469 -22.09472656 20.62960937 -22.11132812 19.73046875 C-22.11554132 14.12691414 -21.42859041 10.19706171 -18.75 5.25 C-13.0562512 -0.29775524 -7.5357657 0.04394032 0 0 Z M-9.75 9.25 C-10.41 11.56 -11.07 13.87 -11.75 16.25 C-3.83 16.25 4.09 16.25 12.25 16.25 C11.92 14.27 11.59 12.29 11.25 10.25 C7.61758231 7.82838821 4.94004984 7.98668005 0.75 8.0625 C0.07324219 8.06314453 -0.60351562 8.06378906 -1.30078125 8.06445312 C-4.38005603 8.09178397 -6.80902474 8.26967491 -9.75 9.25 Z " fill="#231F1F" transform="translate(1597.75,557.75)"/>
<path d="M0 0 C1.34771484 -0.02320313 1.34771484 -0.02320313 2.72265625 -0.046875 C8.70549306 -0.01204043 13.58054692 0.92851974 18.5 4.5 C22.9724752 11.06894795 21.5 15.89728976 21.5 24.5 C10.28 24.5 -0.94 24.5 -12.5 24.5 C-11.20164931 29.93364312 -11.20164931 29.93364312 -8.5 34.5 C-7.15732587 34.58631874 -5.81025678 34.60706473 -4.46484375 34.59765625 C-3.65595703 34.59443359 -2.84707031 34.59121094 -2.01367188 34.58789062 C-0.7384668 34.57532227 -0.7384668 34.57532227 0.5625 34.5625 C1.41650391 34.55798828 2.27050781 34.55347656 3.15039062 34.54882812 C5.26695663 34.53700373 7.38348685 34.51906769 9.5 34.5 C10.16 32.52 10.82 30.54 11.5 28.5 C14.8 28.5 18.1 28.5 21.5 28.5 C21.98621272 35.67163759 21.98621272 35.67163759 19.8125 39.375 C13.94440963 44.76729926 6.08174428 44.4216762 -1.5 44.5 C-13.43460528 43.79949056 -13.43460528 43.79949056 -18.1875 40.3125 C-22.71749176 34.80305056 -22.86345418 28.40339546 -22.875 21.5625 C-22.89949219 20.80259766 -22.92398438 20.04269531 -22.94921875 19.25976562 C-22.97800218 13.64219882 -22.05143604 8.98272122 -18.5 4.5 C-13.01326973 0.01935674 -6.80777285 -0.11720699 0 0 Z M-11.5 11.5 C-11.5 13.15 -11.5 14.8 -11.5 16.5 C-3.91 16.5 3.68 16.5 11.5 16.5 C11.17 14.52 10.84 12.54 10.5 10.5 C6.89888412 8.09925608 4.22396229 8.16755052 0.0625 8.1875 C-1.25621094 8.17074219 -2.57492187 8.15398438 -3.93359375 8.13671875 C-7.58125251 8.50827654 -9.13124423 8.7192867 -11.5 11.5 Z " fill="#231F20" transform="translate(933.5,557.5)"/>
<path d="M0 0 C0.87720703 -0.020625 1.75441406 -0.04125 2.65820312 -0.0625 C8.29602919 -0.09623419 12.21169429 0.54589807 17.1875 3.25 C23.51845543 9.74755952 22.1875 14.76328543 22.1875 24.25 C10.9675 24.25 -0.2525 24.25 -11.8125 24.25 C-11.1525 27.22 -10.4925 30.19 -9.8125 33.25 C-7.515963 34.3982685 -6.22936833 34.36561175 -3.6796875 34.34765625 C-2.87402344 34.34443359 -2.06835938 34.34121094 -1.23828125 34.33789062 C-0.39652344 34.32951172 0.44523437 34.32113281 1.3125 34.3125 C2.58673828 34.30573242 2.58673828 34.30573242 3.88671875 34.29882812 C5.98700909 34.28702874 8.0872633 34.26909306 10.1875 34.25 C10.8475 32.27 11.5075 30.29 12.1875 28.25 C15.4875 28.25 18.7875 28.25 22.1875 28.25 C22.47880183 33.20213111 22.49645436 36.40734332 19.1875 40.25 C10.35746294 45.62480517 -1.16198651 44.81052417 -10.984375 43.04296875 C-15.13639124 41.87879845 -17.00109115 40.51731299 -19.8125 37.25 C-22.52624872 32.38786688 -22.14370234 27.22495737 -22.125 21.8125 C-22.14111328 20.88373047 -22.15722656 19.95496094 -22.17382812 18.99804688 C-22.17762895 13.65788404 -21.83402708 9.84734742 -18.8125 5.25 C-13.00382655 -0.26079276 -7.61892497 0.04419971 0 0 Z M-10.8125 10.25 C-11.1425 12.23 -11.4725 14.21 -11.8125 16.25 C-3.8925 16.25 4.0275 16.25 12.1875 16.25 C11.5275 13.94 10.8675 11.63 10.1875 9.25 C7.04347519 7.6779876 3.69802603 8.06553256 0.25 8.0625 C-0.84344727 8.04413086 -0.84344727 8.04413086 -1.95898438 8.02539062 C-5.7838391 8.01487315 -7.55606564 8.07904376 -10.8125 10.25 Z " fill="#231F20" transform="translate(1339.8125,557.75)"/>
<path d="M0 0 C4.62 0 9.24 0 14 0 C14 28.71 14 57.42 14 87 C9.38 87 4.76 87 0 87 C0 58.29 0 29.58 0 0 Z " fill="#231F20" transform="translate(1750,402)"/>
<path d="M0 0 C0.91136719 -0.01160156 1.82273437 -0.02320313 2.76171875 -0.03515625 C9.61615538 -0.00548336 14.78914385 0.80316211 19.9375 5.6875 C21.77140423 8.84181528 21.83398951 10.78461276 21.5 14.375 C18.2 14.375 14.9 14.375 11.5 14.375 C10.84 12.725 10.18 11.075 9.5 9.375 C3.56 9.375 -2.38 9.375 -8.5 9.375 C-8.5 11.355 -8.5 13.335 -8.5 15.375 C-6.02147004 16.61426498 -3.82213557 16.55870848 -1.09082031 16.66479492 C15.51975028 17.32206126 15.51975028 17.32206126 21.0625 23 C22.90095816 27.31638002 23.31835071 30.75421165 22.5 35.375 C20.81844385 38.80039215 19.70582731 40.77103045 16.26953125 42.4921875 C6.82579878 45.50246047 -5.67884984 45.55793131 -15 42.0625 C-19.12475822 39.2782882 -19.12475822 39.2782882 -20.5 36.375 C-20.73724681 33.32769652 -20.63527478 30.44122826 -20.5 27.375 C-17.2 27.375 -13.9 27.375 -10.5 27.375 C-9.84 29.685 -9.18 31.995 -8.5 34.375 C-1.9 34.375 4.7 34.375 11.5 34.375 C11.17 32.065 10.84 29.755 10.5 27.375 C5.9912569 26.64101856 1.56300583 26.25788614 -3 26 C-9.04742368 25.55513205 -13.54344669 24.74024265 -18.375 20.875 C-21.13588326 17.19382233 -20.95519464 12.76376346 -20.5 8.375 C-19.11064687 4.69730053 -17.99684674 3.6453527 -14.53515625 1.76171875 C-9.77180338 -0.17872403 -5.07706659 -0.06463027 0 0 Z " fill="#231E1F" transform="translate(1152.5,557.625)"/>
<path d="M0 0 C0.95970703 -0.02449219 1.91941406 -0.04898438 2.90820312 -0.07421875 C9.0317187 -0.09929799 14.31117887 0.37197136 19.1875 4.375 C22.71753757 9.91820751 22.67538027 15.36840598 22.625 21.8125 C22.6549707 23.16698242 22.6549707 23.16698242 22.68554688 24.54882812 C22.68119574 30.55774126 21.79630249 35.43979353 18.1875 40.375 C9.58016006 46.05218166 -2.21091689 44.63647757 -11.9375 43.23828125 C-16.22285759 41.95150947 -18.91100008 40.01662023 -21.078125 36.0703125 C-23.50237041 27.17281603 -23.90423443 16.13237584 -20.8125 7.375 C-15.24579447 0.00287647 -8.55325703 0.01135137 0 0 Z M-10.8125 10.375 C-12.08845098 14.20285293 -11.99665169 17.8246657 -12 21.8125 C-12.01224609 22.57626953 -12.02449219 23.34003906 -12.03710938 24.12695312 C-12.10635725 29.55636013 -12.10635725 29.55636013 -9.8125 34.375 C-6.66847519 35.9470124 -3.32302603 35.55946744 0.125 35.5625 C0.85396484 35.57474609 1.58292969 35.58699219 2.33398438 35.59960938 C6.1588391 35.61012685 7.93106564 35.54595624 11.1875 33.375 C12.33306724 29.60720949 12.35192439 25.85573934 12.375 21.9375 C12.38917969 20.84566406 12.40335938 19.75382813 12.41796875 18.62890625 C12.1757138 15.20859486 11.51259503 12.53198079 10.1875 9.375 C7.04347519 7.8029876 3.69802603 8.19053256 0.25 8.1875 C-0.84344727 8.16913086 -0.84344727 8.16913086 -1.95898438 8.15039062 C-5.7838391 8.13987315 -7.55606564 8.20404376 -10.8125 10.375 Z " fill="#231F20" transform="translate(1677.8125,557.625)"/>
<path d="M0 0 C3.3 0 6.6 0 10 0 C10.33 0.66 10.66 1.32 11 2 C11.96292969 1.51660156 11.96292969 1.51660156 12.9453125 1.0234375 C16.98299633 -0.32934148 20.64493978 -0.36805409 24.875 -0.375 C25.65230469 -0.39949219 26.42960937 -0.42398438 27.23046875 -0.44921875 C32.95498973 -0.47808188 36.3860458 0.54248445 41 4 C43.29804248 8.18721618 43.26229815 12.26714173 43.1953125 16.92578125 C43.1924826 17.67337204 43.18965271 18.42096283 43.18673706 19.19120789 C43.17559469 21.5651388 43.15050162 23.93868425 43.125 26.3125 C43.11496249 27.9277289 43.10583799 29.54296376 43.09765625 31.15820312 C43.07567489 35.10561594 43.04118657 39.05274274 43 43 C39.7 43 36.4 43 33 43 C32.67 31.78 32.34 20.56 32 9 C18.49071198 7.88196601 18.49071198 7.88196601 13 11 C11.55037817 13.89924366 11.77873519 16.52300355 11.68359375 19.7578125 C11.66281265 20.42086395 11.64203156 21.08391541 11.62062073 21.76705933 C11.55520769 23.88626694 11.49627895 26.005599 11.4375 28.125 C11.39430691 29.56121081 11.35069236 30.99740902 11.30664062 32.43359375 C11.19953501 35.95559594 11.09824425 39.47773825 11 43 C7.37 43 3.74 43 0 43 C0 28.81 0 14.62 0 0 Z " fill="#231F1F" transform="translate(1913,558)"/>
<path d="M0 0 C3.63 0 7.26 0 11 0 C11 2.97 11 5.94 11 9 C16.94 9 22.88 9 29 9 C29 11.64 29 14.28 29 17 C23.06 17 17.12 17 11 17 C11.33 25.58 11.66 34.16 12 43 C14.31 43 16.62 43 19 43 C19.66 40.36 20.32 37.72 21 35 C23.97 35 26.94 35 30 35 C30.85877356 44.65643154 30.85877356 44.65643154 28 48.5 C23.11304215 52.57246487 18.64290729 53.28652927 12.375 52.875 C8.12130042 52.2431897 5.27396935 50.8747048 2 48 C0.05907822 44.18791734 -0.23714029 41.06973962 -0.1953125 36.82421875 C-0.18886719 35.66728516 -0.18242188 34.51035156 -0.17578125 33.31835938 C-0.15902344 32.12017578 -0.14226562 30.92199219 -0.125 29.6875 C-0.11597656 28.46998047 -0.10695313 27.25246094 -0.09765625 25.99804688 C-0.07413037 22.99849726 -0.04125653 19.99934956 0 17 C-1.98 17 -3.96 17 -6 17 C-6 14.36 -6 11.72 -6 9 C-4.02 9 -2.04 9 0 9 C0 6.03 0 3.06 0 0 Z " fill="#231F20" transform="translate(1970,549)"/>
<path d="M0 0 C3.3 0 6.6 0 10 0 C10 2.97 10 5.94 10 9 C15.94 9 21.88 9 28 9 C28 11.64 28 14.28 28 17 C22.06 17 16.12 17 10 17 C10.14009116 21.14610213 10.28678753 25.29178241 10.4375 29.4375 C10.47681641 30.62150391 10.51613281 31.80550781 10.55664062 33.02539062 C10.59853516 34.15009766 10.64042969 35.27480469 10.68359375 36.43359375 C10.72025146 37.47572021 10.75690918 38.51784668 10.79467773 39.59155273 C10.73515341 41.9499826 10.73515341 41.9499826 12 43 C14.33297433 43.04092937 16.66705225 43.04241723 19 43 C19.33 40.36 19.66 37.72 20 35 C23.3 35 26.6 35 30 35 C30.38715933 41.38812891 30.41573653 44.97096672 26 50 C21.96802756 53.02397933 16.53516603 53.19013745 11.65625 52.82421875 C7.05534903 52.06507009 4.00020981 51.05009053 0.98364258 47.18676758 C-1.30909493 42.08970879 -0.49067465 36.09085017 -0.3125 30.625 C-0.28994141 29.31660156 -0.26738281 28.00820313 -0.24414062 26.66015625 C-0.18535914 23.43893113 -0.10322731 20.2200568 0 17 C-2.31 17 -4.62 17 -7 17 C-7 14.36 -7 11.72 -7 9 C-4.69 9 -2.38 9 0 9 C0 6.03 0 3.06 0 0 Z " fill="#231F20" transform="translate(1281,549)"/>
<path d="M0 0 C3.3 0 6.6 0 10 0 C10 2.97 10 5.94 10 9 C15.94 9 21.88 9 28 9 C28 11.64 28 14.28 28 17 C22.06 17 16.12 17 10 17 C10.33 25.58 10.66 34.16 11 43 C13.64 43 16.28 43 19 43 C19.33 40.36 19.66 37.72 20 35 C23.3 35 26.6 35 30 35 C30.33456205 40.4645135 29.68001046 44.19446399 27 49 C23.20476005 52.25306281 18.90245976 52.99122995 14 53 C7.6304132 52.41514645 4.21208412 51.04307746 0 46 C-0.56762695 42.77026367 -0.56762695 42.77026367 -0.48828125 39.16796875 C-0.47216797 37.87568359 -0.45605469 36.58339844 -0.43945312 35.25195312 C-0.39768274 33.89711843 -0.35535809 32.54230072 -0.3125 31.1875 C-0.28740069 29.81319134 -0.26459036 28.43883884 -0.24414062 27.06445312 C-0.18526461 23.70852024 -0.1030642 20.3548191 0 17 C-2.31 17 -4.62 17 -7 17 C-7 14.36 -7 11.72 -7 9 C-4.69 9 -2.38 9 0 9 C0 6.03 0 3.06 0 0 Z " fill="#231F20" transform="translate(1187,549)"/>
<path d="M0 0 C3.3 0 6.6 0 10 0 C11.54948369 3.7897836 13.09770886 7.58007861 14.64477539 11.37084961 C15.17112311 12.66005301 15.69781305 13.94911675 16.22485352 15.23803711 C16.98283647 17.09191626 17.73948248 18.94634186 18.49609375 20.80078125 C18.95169678 21.91622314 19.4072998 23.03166504 19.87670898 24.1809082 C20.6410028 26.09903486 21.34705629 28.04116887 22 30 C26.2193289 20.0836049 30.12355179 10.05418844 34 0 C37.63 0 41.26 0 45 0 C44.32085039 3.39574805 43.74788013 5.94440203 42.50952148 9.0559082 C42.20928574 9.81631912 41.90904999 10.57673004 41.59971619 11.36018372 C41.27677078 12.1655809 40.95382538 12.97097809 40.62109375 13.80078125 C40.12380516 15.0553437 40.12380516 15.0553437 39.61647034 16.33525085 C38.56077063 18.99592622 37.49922408 21.65422366 36.4375 24.3125 C35.71901362 26.12028878 35.00091028 27.92822985 34.28320312 29.73632812 C32.52656887 34.15932893 30.76468858 38.58020688 29 43 C24.71 43 20.42 43 16 43 C14.52372233 39.39333213 13.04832748 35.78631943 11.57495117 32.1784668 C10.83409312 30.36534542 10.09187164 28.55278134 9.34960938 26.74023438 C6.91277395 20.77080532 4.49811785 14.79267164 2.13671875 8.79296875 C1.72510498 7.75035889 1.31349121 6.70774902 0.8894043 5.63354492 C0 3 0 3 0 0 Z " fill="#221E1F" transform="translate(1525,558)"/>
<path d="M0 0 C3.63 0 7.26 0 11 0 C11 19.8 11 39.6 11 60 C7.37 60 3.74 60 0 60 C0 40.2 0 20.4 0 0 Z " fill="#221E1F" transform="translate(1024,541)"/>
<path d="M0 0 C3.3 0 6.6 0 10 0 C10 19.8 10 39.6 10 60 C6.7 60 3.4 60 0 60 C0 40.2 0 20.4 0 0 Z " fill="#231F20" transform="translate(1633,541)"/>
<path d="M0 0 C-2.55991624 2.01136276 -5.04590299 3.62845496 -8 5 C-8 4.01 -8 3.02 -8 2 C-4.77208445 -0.1519437 -3.71599191 -0.20086443 0 0 Z " fill="#CC1D24" transform="translate(183,185)"/>
</svg>
