<?xml version="1.0" encoding="utf-8"?>
<!-- Generator: Adobe Illustrator 22.1.0, SVG Export Plug-In . SVG Version: 6.00 Build 0)  -->
<svg version="1.1" id="Layer_1" xmlns="http://www.w3.org/2000/svg" xmlns:xlink="http://www.w3.org/1999/xlink" x="0px" y="0px"
	 width="30px" height="30px" viewBox="0 0 30 30" style="enable-background:new 0 0 30 30;" xml:space="preserve">
<style type="text/css">
	.st0{fill:#FFFFFF;}
</style>
<g>
	<g>
		<polygon class="st0" points="21.8,9.5 21.8,16.6 25.4,13 		"/>
	</g>
	<g>
		<path class="st0" d="M15.7,3.3c-0.4-0.4-1.1-0.4-1.5,0l-1.5,1.5h4.6L15.7,3.3z"/>
	</g>
	<g>
		<polygon class="st0" points="8.1,9.5 5,12.6 4.5,13 8.1,16.6 		"/>
	</g>
	<g>
		<polygon class="st0" points="10.4,20.4 10.4,20.3 4.4,14.3 4.4,14.4 4.4,14.6 4.4,15 4.4,26.3 		"/>
	</g>
	<g>
		<path class="st0" d="M24.1,26.2L24.1,26.2l-8.4-8.4c-0.4-0.4-1.1-0.4-1.5,0l-8.6,8.6l0,0l-0.5,0.5h19.6l-0.2-0.2L24.1,26.2z"/>
	</g>
	<g>
		<polygon class="st0" points="19.5,20.3 19.6,20.4 19.6,20.4 25.5,26.3 25.5,14.6 25.5,14.4 25.5,14.2 		"/>
	</g>
	<g>
		<path class="st0" d="M13.6,17.2c0.4-0.4,0.9-0.6,1.4-0.6s1,0.2,1.4,0.6l0.3,0.3l2.1,2.1l2.1-2.1v-9l-2.8-2.8H9v11.8l2.1,2.1
			L13.6,17.2z M11.8,8.5h6.4v0.9h-6.4C11.8,9.4,11.8,8.5,11.8,8.5z M11.8,11.3h4.6v0.9h-4.6V11.3z M11.8,14h6.4v1h-6.4
			C11.8,15,11.8,14,11.8,14z"/>
	</g>
</g>
</svg>
