<?xml version="1.0" encoding="utf-8"?>
<!-- Generator: Adobe Illustrator 23.0.5, SVG Export Plug-In . SVG Version: 6.00 Build 0)  -->
<svg version="1.1" id="Layer_1" xmlns="http://www.w3.org/2000/svg" xmlns:xlink="http://www.w3.org/1999/xlink" x="0px" y="0px"
	 width="80px" height="70px" viewBox="0 0 80 70" style="enable-background:new 0 0 80 70;" xml:space="preserve">
<style type="text/css">
	.st0{fill:#FFFFFF;}
</style>
<path class="st0" d="M40,43.7L34,38.3L18.1,52.3c-0.9,0.8-0.3,2.3,0.9,2.3c0,0,0,0,0,0h41.8c0,0,0,0,0,0c1.2,0,1.8-1.4,0.9-2.2
	L46.1,38.3L40,43.7z"/>
<path class="st0" d="M61.9,20.8c0.9-0.8,0.3-2.1-0.9-2.2c0,0,0,0,0,0H19.2c0,0,0,0,0,0c-1.2,0-1.8,1.4-0.9,2.2l20.9,18.5
	c0.6,0.5,1.5,0.5,2,0L61.9,20.8z"/>
<path class="st0" d="M15.6,25.4V48c0,1.4,1.8,2,2.9,1.1l12.7-11.2c0.7-0.6,0.7-1.6,0-2.2L18.5,24.4C17.5,23.4,15.6,24.1,15.6,25.4z"
	/>
<path class="st0" d="M48.8,37.9l12.7,11.2c1.1,1,2.9,0.3,2.9-1.1V25.4c0-1.4-1.9-2-2.9-1.1L48.7,35.8C48.1,36.4,48.1,37.4,48.8,37.9
	z"/>
</svg>
